<?xml version="1.0" encoding="UTF-8" standalone="no"?>
<!-- Created with Inkscape (http://www.inkscape.org/) -->
<svg
   xmlns:dc="http://purl.org/dc/elements/1.1/"
   xmlns:cc="http://creativecommons.org/ns#"
   xmlns:rdf="http://www.w3.org/1999/02/22-rdf-syntax-ns#"
   xmlns:svg="http://www.w3.org/2000/svg"
   xmlns="http://www.w3.org/2000/svg"
   xmlns:xlink="http://www.w3.org/1999/xlink"
   xmlns:sodipodi="http://sodipodi.sourceforge.net/DTD/sodipodi-0.dtd"
   xmlns:inkscape="http://www.inkscape.org/namespaces/inkscape"
   width="744.09003"
   height="250"
   id="svg3265"
   sodipodi:version="0.32"
   inkscape:version="0.46"
   version="1.0"
   sodipodi:docbase="/home/fabio/Desktop/press"
   sodipodi:docname="sabayon-logo-transparent.svg"
   inkscape:output_extension="org.inkscape.output.svg.inkscape">
  <defs
     id="defs3267">
    <inkscape:perspective
       sodipodi:type="inkscape:persp3d"
       inkscape:vp_x="0 : 125 : 1"
       inkscape:vp_y="0 : 1000 : 0"
       inkscape:vp_z="744.09003 : 125 : 1"
       inkscape:persp3d-origin="372.04501 : 83.333333 : 1"
       id="perspective40" />
    <linearGradient
       id="linearGradient4469">
      <stop
         id="stop4471"
         offset="0"
         style="stop-color:#610000;stop-opacity:1;" />
      <stop
         id="stop4473"
         offset="1"
         style="stop-color:#650000;stop-opacity:0;" />
    </linearGradient>
    <linearGradient
       inkscape:collect="always"
       xlink:href="#linearGradient4469"
       id="linearGradient18869"
       gradientUnits="userSpaceOnUse"
       x1="463.54642"
       y1="480.83444"
       x2="463.54642"
       y2="413.53998" />
    <linearGradient
       id="linearGradient2827">
      <stop
         style="stop-color:white;stop-opacity:1;"
         offset="0"
         id="stop2829" />
      <stop
         style="stop-color:black;stop-opacity:0;"
         offset="1"
         id="stop2831" />
    </linearGradient>
    <radialGradient
       inkscape:collect="always"
       xlink:href="#linearGradient2827"
       id="radialGradient18871"
       gradientUnits="userSpaceOnUse"
       gradientTransform="matrix(2.928411,1.1129447e-6,-5.6022465e-7,1.4740787,-899.02713,-219.50059)"
       cx="465.29459"
       cy="508.45303"
       fx="465.29459"
       fy="508.45303"
       r="79.005089" />
    <linearGradient
       id="linearGradient3233">
      <stop
         style="stop-color:#ffffff;stop-opacity:0.95151514;"
         offset="0"
         id="stop3235" />
      <stop
         style="stop-color:#ffffff;stop-opacity:0.75757575;"
         offset="1"
         id="stop3237" />
    </linearGradient>
    <radialGradient
       inkscape:collect="always"
       xlink:href="#linearGradient3233"
       id="radialGradient18862"
       gradientUnits="userSpaceOnUse"
       gradientTransform="matrix(1.6977433,-2.4334288e-7,1.5983099e-7,1.1151013,-1273.8119,-23.171109)"
       cx="891.9137"
       cy="466.54245"
       fx="891.9137"
       fy="466.54245"
       r="66.533768" />
    <linearGradient
       id="linearGradient2764">
      <stop
         style="stop-color:#7d0000;stop-opacity:1;"
         offset="0"
         id="stop2766" />
      <stop
         id="stop6460"
         offset="0.5"
         style="stop-color:#ffefef;stop-opacity:0.31515151;" />
      <stop
         style="stop-color:#750000;stop-opacity:1;"
         offset="1"
         id="stop2768" />
    </linearGradient>
    <radialGradient
       inkscape:collect="always"
       xlink:href="#linearGradient2764"
       id="radialGradient14943"
       gradientUnits="userSpaceOnUse"
       gradientTransform="matrix(1.634067,0,0,1.1373812,-293.91948,-49.990622)"
       cx="463.54642"
       cy="363.8826"
       fx="463.54642"
       fy="363.8826"
       r="86.104095" />
    <linearGradient
       id="linearGradient5455">
      <stop
         id="stop5457"
         offset="0"
         style="stop-color:#928a8a;stop-opacity:1;" />
      <stop
         id="stop5459"
         offset="1"
         style="stop-color:#750000;stop-opacity:1;" />
    </linearGradient>
    <radialGradient
       inkscape:collect="always"
       xlink:href="#linearGradient5455"
       id="radialGradient14941"
       gradientUnits="userSpaceOnUse"
       gradientTransform="matrix(2.928411,0,0,2.235288,-899.0274,-606.5392)"
       cx="465.29462"
       cy="503.70474"
       fx="465.29462"
       fy="503.70474"
       r="79.005089" />
    <linearGradient
       id="linearGradient3550">
      <stop
         style="stop-color:#fbffff;stop-opacity:0.95757574;"
         offset="0"
         id="stop3552" />
      <stop
         style="stop-color:#ffffff;stop-opacity:0.72121215;"
         offset="1"
         id="stop3554" />
    </linearGradient>
    <linearGradient
       inkscape:collect="always"
       xlink:href="#linearGradient3550"
       id="linearGradient18867"
       gradientUnits="userSpaceOnUse"
       gradientTransform="matrix(0.9840884,0,0,0.9840884,88.235437,118.85838)"
       x1="565.65393"
       y1="52.028114"
       x2="645.57361"
       y2="564.80005" />
    <radialGradient
       inkscape:collect="always"
       xlink:href="#linearGradient3233"
       id="radialGradient3308"
       gradientUnits="userSpaceOnUse"
       gradientTransform="matrix(1.6977433,-2.4334288e-7,1.5983099e-7,1.1151013,-1408.669,-418.51917)"
       cx="891.9137"
       cy="466.54245"
       fx="891.9137"
       fy="466.54245"
       r="66.533768" />
    <linearGradient
       inkscape:collect="always"
       xlink:href="#linearGradient3550"
       id="linearGradient3313"
       gradientUnits="userSpaceOnUse"
       gradientTransform="matrix(0.9840884,0,0,0.9840884,-45.660452,-279.32792)"
       x1="565.65393"
       y1="52.028114"
       x2="645.57361"
       y2="564.80005" />
  </defs>
  <sodipodi:namedview
     id="base"
     pagecolor="#ffffff"
     bordercolor="#666666"
     borderopacity="1.0"
     inkscape:pageopacity="0.0"
     inkscape:pageshadow="2"
     inkscape:zoom="1.7067901"
     inkscape:cx="397.14286"
     inkscape:cy="90.117086"
     inkscape:document-units="px"
     inkscape:current-layer="layer1"
     width="744.09px"
     height="250px"
     inkscape:showpageshadow="false"
     inkscape:window-width="1674"
     inkscape:window-height="953"
     inkscape:window-x="0"
     inkscape:window-y="24"
     showgrid="false" />
  <metadata
     id="metadata3270">
    <rdf:RDF>
      <cc:Work
         rdf:about="">
        <dc:format>image/svg+xml</dc:format>
        <dc:type
           rdf:resource="http://purl.org/dc/dcmitype/StillImage" />
      </cc:Work>
    </rdf:RDF>
  </metadata>
  <g
     inkscape:label="Livello 1"
     inkscape:groupmode="layer"
     id="layer1">
    <g
       id="g2415">
      <path
         id="text14927"
         d="M 237.96562,110.55961 C 246.52584,110.55965 253.97644,112.09204 260.31744,115.1568 C 267.60945,118.8557 271.25549,124.29834 271.25556,131.48472 C 271.25549,138.45976 267.66229,143.79671 260.47596,147.49559 C 254.13496,150.56037 246.63153,152.09276 237.96562,152.09277 L 212.91891,152.09277 C 210.59389,152.09276 208.58593,151.24731 206.89502,149.55639 C 205.30978,147.97116 204.51716,146.06888 204.51716,143.84955 C 204.51716,141.52454 205.30978,139.56942 206.89502,137.98418 C 208.48024,136.39895 210.48821,135.60634 212.91891,135.60633 L 237.8071,135.60633 C 239.70934,135.60634 241.55878,135.50065 243.35542,135.28928 C 245.25766,135.07793 246.94857,134.76088 248.42817,134.33814 C 250.01336,133.91542 251.33439,133.49269 252.39126,133.06995 C 253.55371,132.54155 254.29349,132.01314 254.61059,131.48472 L 254.61059,131.32619 C 254.08212,130.37507 252.07416,129.47677 248.5867,128.63129 C 245.09913,127.68017 241.55878,127.2046 237.96562,127.20458 C 229.29964,127.2046 221.7962,125.67221 215.45529,122.6074 C 208.1632,119.01423 204.51716,113.62443 204.51716,106.438 C 204.51716,99.357333 208.11036,93.96754 215.29676,90.268607 C 221.42632,87.098195 228.9826,85.512962 237.96562,85.512902 L 262.85381,85.512902 C 265.28444,85.512962 267.2924,86.305578 268.8777,87.890754 C 270.46287,89.476045 271.25549,91.484007 271.25556,93.914647 C 271.25549,96.239708 270.46287,98.194829 268.8777,99.780016 C 267.2924,101.3653 265.28444,102.15791 262.85381,102.15787 L 237.96562,102.15787 C 236.0633,102.15791 234.16102,102.31644 232.25878,102.63344 C 230.46215,102.84485 228.77123,103.16189 227.18602,103.58458 C 225.70645,103.90167 224.38542,104.3244 223.22294,104.85277 C 222.16609,105.38122 221.47916,105.85679 221.16213,106.27948 C 221.69052,107.23066 223.64564,108.1818 227.0275,109.1329 C 230.51499,110.08408 234.16102,110.55965 237.96562,110.55961 M 344.94422,118.96136 L 344.94422,143.84955 C 344.94415,146.17456 344.15153,148.12968 342.56636,149.71492 C 340.98106,151.30015 338.9731,152.09276 336.54247,152.09277 C 333.26626,152.09276 330.83557,150.61321 329.25039,147.65411 C 326.81964,149.02798 324.12475,150.0848 321.16569,150.82458 C 318.31222,151.67004 315.14176,152.09276 311.65428,152.09277 C 300.55761,152.09276 291.94451,148.2882 285.81495,140.67908 C 280.74219,134.33815 278.20582,127.09892 278.20582,118.96136 C 278.20582,110.71817 280.68935,103.47894 285.65643,97.24364 C 291.89167,89.423204 300.55761,85.512962 311.65428,85.512902 C 322.75088,85.512962 331.36398,89.370363 337.49361,97.085117 C 342.46061,103.32042 344.94415,110.61249 344.94422,118.96136 M 328.29925,118.96136 C 328.29919,115.05114 327.45374,111.77499 325.76287,109.1329 C 322.9094,104.48292 318.20654,102.15791 311.65428,102.15787 C 306.47581,102.15791 302.35421,103.6903 299.28945,106.75505 C 296.33032,109.71419 294.85077,113.73012 294.85079,118.80284 C 294.85077,122.71311 295.69623,125.98925 297.38717,128.63129 C 300.24056,133.28133 304.99626,135.60634 311.65428,135.60633 C 318.10086,135.60634 322.75088,133.33417 325.60435,128.78982 C 327.4009,125.72505 328.29919,122.4489 328.29925,118.96136 M 421.10981,118.96136 C 421.10973,126.78187 418.6262,133.96826 413.6592,140.52056 C 407.52957,148.23536 398.91647,152.09276 387.81987,152.09277 C 384.12095,152.09276 380.89765,151.72288 378.14994,150.98311 C 375.50785,150.34901 372.81296,149.23934 370.06524,147.65411 C 368.47998,150.61321 366.04929,152.09276 362.77316,152.09277 C 360.44814,152.09276 358.44017,151.24731 356.74926,149.55639 C 355.16402,147.97116 354.37141,146.06888 354.37141,143.84955 L 354.37141,43.821221 C 354.37141,41.496314 355.16402,39.541193 356.74926,37.955852 C 358.44017,36.265044 360.44814,35.419586 362.77316,35.419476 C 365.09815,35.419586 367.05327,36.212203 368.63853,37.797328 C 370.22374,39.38267 371.01636,41.390632 371.01638,43.821221 L 371.01638,89.475989 C 375.56069,86.833989 381.16185,85.512962 387.81987,85.512902 C 398.91647,85.512962 407.52957,89.370363 413.6592,97.085117 C 418.6262,103.32042 421.10973,110.61249 421.10981,118.96136 M 404.46484,118.96136 C 404.46478,115.05114 403.61933,111.77499 401.92846,109.1329 C 399.07499,104.48292 394.37213,102.15791 387.81987,102.15787 C 382.74709,102.15791 378.67832,103.6903 375.61356,106.75505 C 372.54875,109.71419 371.01636,113.73012 371.01638,118.80284 C 371.01636,122.29038 371.91466,125.56653 373.71128,128.63129 C 376.56468,133.28133 381.26753,135.60634 387.81987,135.60633 C 392.89258,135.60634 396.9085,134.12679 399.86766,131.16767 C 402.93239,128.1029 404.46478,124.03413 404.46484,118.96136 M 497.27539,118.96136 L 497.27539,143.84955 C 497.27532,146.17456 496.48271,148.12968 494.89754,149.71492 C 493.31224,151.30015 491.30428,152.09276 488.87365,152.09277 C 485.59744,152.09276 483.16674,150.61321 481.58157,147.65411 C 479.15082,149.02798 476.45592,150.0848 473.49687,150.82458 C 470.6434,151.67004 467.47293,152.09276 463.98546,152.09277 C 452.88879,152.09276 444.27569,148.2882 438.14613,140.67908 C 433.07337,134.33815 430.537,127.09892 430.537,118.96136 C 430.537,110.71817 433.02053,103.47894 437.98761,97.24364 C 444.22284,89.423204 452.88879,85.512962 463.98546,85.512902 C 475.08205,85.512962 483.69516,89.370363 489.82479,97.085117 C 494.79179,103.32042 497.27532,110.61249 497.27539,118.96136 M 480.63043,118.96136 C 480.63037,115.05114 479.78491,111.77499 478.09405,109.1329 C 475.24058,104.48292 470.53772,102.15791 463.98546,102.15787 C 458.80699,102.15791 454.68538,103.6903 451.62063,106.75505 C 448.6615,109.71419 447.18195,113.73012 447.18197,118.80284 C 447.18195,122.71311 448.0274,125.98925 449.71834,128.63129 C 452.57174,133.28133 457.32744,135.60634 463.98546,135.60633 C 470.43204,135.60634 475.08205,133.33417 477.93553,128.78982 C 479.73207,125.72505 480.63037,122.4489 480.63043,118.96136 M 573.44098,93.914647 L 573.44098,143.84955 C 573.44091,151.67004 570.95738,158.85643 565.99038,165.40874 C 559.75506,173.22921 551.14196,177.13945 540.15105,177.13948 C 537.826,177.13945 535.81804,176.29399 534.12715,174.60311 C 532.54189,173.01785 531.74927,171.06272 531.7493,168.73774 C 531.74927,166.41271 532.54189,164.45758 534.12715,162.87237 C 535.71236,161.28712 537.72032,160.4945 540.15105,160.49452 C 545.22376,160.4945 549.08116,159.17347 551.72326,156.53143 C 553.83686,154.41777 555.31641,151.72288 556.16192,148.44673 C 550.98344,150.87742 545.64648,152.09276 540.15105,152.09277 C 529.05438,152.09276 520.44127,148.2882 514.31172,140.67908 C 509.23896,134.33815 506.70258,127.09892 506.70259,118.96136 L 506.70259,93.914647 C 506.70258,91.58969 507.4952,89.634568 509.08044,88.049278 C 510.77135,86.358419 512.77931,85.512962 515.10433,85.512902 C 517.42933,85.512962 519.38445,86.305578 520.9697,87.890754 C 522.55492,89.476045 523.34754,91.484007 523.34756,93.914647 L 523.34756,118.80284 C 523.34754,122.71311 524.19299,125.98925 525.88393,128.63129 C 528.73733,133.28133 533.49303,135.60634 540.15105,135.60633 C 545.22376,135.60634 549.23968,134.12679 552.19883,131.16767 C 555.26357,128.1029 556.79596,123.98129 556.79601,118.80284 L 556.79601,93.914647 C 556.79596,91.695372 557.58858,89.740251 559.17387,88.049278 C 560.75904,86.358419 562.71416,85.512962 565.03924,85.512902 C 567.46986,85.512962 569.47783,86.305578 571.06313,87.890754 C 572.64829,89.476045 573.44091,91.484007 573.44098,93.914647 M 649.60657,118.96136 C 649.6065,130.05802 645.7491,138.67112 638.03435,144.80069 C 631.90473,149.66207 624.66549,152.09276 616.31664,152.09277 C 608.28475,152.09276 601.04552,149.66207 594.59892,144.80069 C 586.77842,138.56544 582.86817,129.95234 582.86818,118.96136 C 582.86817,107.86475 586.72557,99.251651 594.44039,93.122029 C 600.88699,88.049335 608.17907,85.512962 616.31664,85.512902 C 624.45413,85.512962 631.64052,87.996494 637.87583,92.963506 C 645.69626,99.19881 649.6065,107.86475 649.60657,118.96136 M 632.9616,118.96136 C 632.96155,113.78296 631.53484,109.76703 628.68147,106.91357 C 625.51095,103.74315 621.38934,102.15791 616.31664,102.15787 C 612.40636,102.15791 609.13021,103.00337 606.48818,104.69424 C 601.83813,107.54771 599.51312,112.30341 599.51314,118.96136 C 599.51312,125.61937 601.78529,130.26938 606.32966,132.91143 C 609.39441,134.70804 612.7234,135.60634 616.31664,135.60633 C 620.12116,135.60634 623.34447,134.76088 625.98657,133.06995 C 630.63654,130.21654 632.96155,125.51368 632.9616,118.96136 M 725.77216,118.96136 L 725.77216,143.84955 C 725.77209,146.17456 724.97947,148.12968 723.39431,149.71492 C 721.809,151.30015 719.80104,152.09276 717.37041,152.09277 C 715.04534,152.09276 713.09022,151.30015 711.50504,149.71492 C 709.91975,148.12968 709.12714,146.17456 709.12719,143.84955 L 709.12719,118.96136 C 709.12714,115.05114 708.28168,111.77499 706.59082,109.1329 C 703.73734,104.48292 699.03448,102.15791 692.48222,102.15787 C 687.40944,102.15791 683.34067,103.6903 680.27591,106.75505 C 677.2111,109.71419 675.67871,113.78296 675.67873,118.96136 L 675.67873,143.84955 C 675.67871,146.17456 674.8861,148.12968 673.30088,149.71492 C 671.71563,151.30015 669.76051,152.09276 667.43551,152.09277 C 665.11049,152.09276 663.10253,151.24731 661.41162,149.55639 C 659.82638,147.97116 659.03376,146.06888 659.03377,143.84955 L 659.03377,93.914647 C 659.03376,91.58969 659.82638,89.634568 661.41162,88.049278 C 663.10253,86.358419 665.11049,85.512962 667.43551,85.512902 C 670.71165,85.512962 673.14234,86.992513 674.72759,89.95156 C 677.05258,88.683428 679.74748,87.626606 682.81229,86.78109 C 685.87705,85.935691 689.10035,85.512962 692.48222,85.512902 C 703.57882,85.512962 712.19192,89.370363 718.32155,97.085117 C 723.28855,103.32042 725.77209,110.61249 725.77216,118.96136"
         style="font-size:158.52349854px;font-style:normal;font-variant:normal;font-weight:normal;font-stretch:normal;text-align:start;line-height:125%;writing-mode:lr-tb;text-anchor:start;fill:#6c0104;fill-opacity:1;stroke:url(#linearGradient3313);stroke-width:4.90626144;stroke-linecap:round;stroke-linejoin:round;stroke-miterlimit:4;stroke-opacity:1;font-family:Entangled Plain BRK"
         transform="scale(1.0071791,0.9928721)" />
      <path
         transform="matrix(0.8793719,0,0,0.8793719,-301.70698,-217.19819)"
         d="M 541.79464 363.8826 A 78.248222 78.248222 0 1 1  385.29819,363.8826 A 78.248222 78.248222 0 1 1  541.79464 363.8826 z"
         sodipodi:ry="78.248222"
         sodipodi:rx="78.248222"
         sodipodi:cy="363.8826"
         sodipodi:cx="463.54642"
         id="path14931"
         style="fill:url(#radialGradient14941);fill-opacity:1;stroke:url(#radialGradient14943);stroke-width:15.71174049;stroke-linecap:round;stroke-linejoin:round;stroke-miterlimit:4;stroke-dasharray:none;stroke-opacity:1"
         sodipodi:type="arc" />
      <path
         id="text14933"
         d="M 68.271008,128.44674 C 67.220788,127.24653 66.095569,126.00879 64.895347,124.73352 C 63.695102,123.38328 63.094985,122.07052 63.094995,120.79525 C 63.094985,119.97011 63.320029,119.14495 63.770127,118.31976 C 65.495452,117.79469 67.258296,117.53214 69.058662,117.53211 C 73.559522,117.53214 78.097905,119.06994 82.673825,122.14551 C 83.573971,122.67064 84.736697,123.64583 86.162007,125.07108 C 87.362208,125.74624 89.125051,126.68392 91.450542,127.88413 L 92.013152,127.88413 C 91.938099,128.03418 91.900591,128.18421 91.90063,128.33422 C 91.900591,128.55928 92.088128,128.70931 92.46324,128.78431 C 92.913288,128.85934 93.175839,128.93436 93.250894,129.00935 C 93.700942,129.00937 94.188537,128.74682 94.71368,128.2217 C 95.238741,127.69662 95.688828,127.47157 96.063944,127.54657 C 96.664018,127.0965 96.964077,125.67122 96.96412,123.27073 C 97.264135,123.12073 97.414164,123.0082 97.414208,122.93316 C 97.414164,122.85817 97.301642,122.78316 97.076642,122.70812 C 96.926569,122.55812 96.851555,122.40809 96.851598,122.25803 C 96.851555,122.10803 96.889062,121.99551 96.96412,121.92047 C 96.964077,114.71909 97.001584,107.48018 97.076642,100.20372 C 97.226628,91.877145 98.201818,85.350875 100.00221,80.624888 C 100.45226,78.449531 101.69,76.649181 103.71544,75.223832 C 104.09046,75.148889 104.46554,75.111382 104.84066,75.11131 C 106.49093,75.111382 107.91621,75.899035 109.1165,77.474272 C 109.26647,78.299502 109.79157,79.274692 110.69181,80.399844 C 111.06682,83.32548 111.66694,87.63882 112.49216,93.339876 L 112.49216,108.86791 C 112.19204,108.86795 112.07952,109.05549 112.15459,109.43052 C 112.15453,110.03068 112.15453,110.33074 112.15459,110.3307 C 112.22955,111.53097 112.07952,113.14378 111.7045,115.16915 C 112.0045,115.16918 112.15453,115.35671 112.15459,115.73176 C 112.15453,116.25689 112.15453,116.51944 112.15459,116.51941 C 111.85447,116.89451 111.70445,117.49463 111.7045,118.31976 C 111.77946,119.67005 111.77946,120.38269 111.7045,120.45768 C 112.0045,122.18304 114.06741,123.53331 117.89321,124.50847 C 120.96875,124.05841 124.34441,122.40809 128.0202,119.5575 C 132.67103,116.03185 135.78413,113.89393 137.35952,113.14375 C 139.60988,112.09358 142.04785,112.09358 144.67345,113.14375 C 144.74838,113.51886 144.78588,113.93144 144.78597,114.38149 C 144.78588,116.03185 144.11075,118.16976 142.76058,120.79525 C 140.58507,125.14612 137.58448,128.25923 133.75882,130.13457 C 133.15862,130.88474 132.25845,131.59737 131.05829,132.27249 C 129.85798,132.94764 128.73276,133.58526 127.68263,134.18537 C 126.10725,135.23558 122.16898,137.56104 115.86782,141.16173 C 113.5423,143.0371 112.15453,144.12481 111.7045,144.42487 C 110.05412,145.6251 108.32879,146.45027 106.52849,146.90035 C 105.40322,147.05038 104.31551,147.1254 103.26535,147.1254 C 98.839442,147.1254 94.488595,145.88766 90.2128,143.41217 C 88.187369,142.28696 84.624175,139.69895 79.523209,135.64815 C 75.097321,132.12248 71.346591,129.72201 68.271008,128.44674 M 53.30558,109.20548 L 56.11863,109.20548 C 56.268657,109.43056 56.793759,109.76813 57.693939,110.21818 C 58.594109,110.59329 59.044197,111.08088 59.044203,111.68096 C 61.444664,112.65619 63.207507,114.08147 64.332737,115.9568 C 64.032668,117.08205 62.907449,117.94472 60.957077,118.54481 C 57.581412,117.71967 55.030916,114.60657 53.30558,109.20548 M 145.9112,112.3561 C 146.51122,108.15531 149.62433,105.37977 155.25052,104.02947 C 156.97576,104.10452 157.65089,105.0047 157.27592,106.72999 C 156.97576,107.78024 156.1881,109.05549 154.91296,110.55574 C 152.36236,113.55636 149.5118,114.7941 146.36128,114.26897 L 145.9112,112.3561 M 102.92779,70.385385 C 102.92774,70.085404 102.7402,69.222736 102.36518,67.797379 C 102.14008,66.747254 102.10258,65.809572 102.25265,64.984329 C 102.32762,64.984411 102.44014,64.909396 102.59022,64.759285 C 102.44014,64.009221 102.51516,62.92151 102.81526,61.496147 C 103.19029,59.17078 103.37782,57.970546 103.37787,57.895442 C 103.60287,56.845327 104.278,56.320225 105.40327,56.320134 C 105.92832,56.320225 106.30339,56.582776 106.52849,57.107788 C 106.8285,57.257907 106.94102,57.783009 106.86606,58.683096 C 106.866,59.508345 107.12855,59.920926 107.65371,59.920838 C 108.32879,64.496816 108.25377,68.210039 107.42867,71.060517 C 107.05354,70.985579 106.866,71.173115 106.86606,71.623127 C 106.866,71.998276 106.75348,72.185812 106.52849,72.185738 C 105.40322,72.110798 104.65307,71.998276 104.27805,71.848172 C 103.45284,71.548188 103.00275,71.060593 102.92779,70.385385"
         style="font-size:9.37683582px;font-style:normal;font-weight:normal;fill:url(#radialGradient3308);fill-opacity:1;stroke:none;stroke-width:1px;stroke-linecap:butt;stroke-linejoin:miter;stroke-opacity:1;font-family:Bitstream Vera Sans" />
      <path
         sodipodi:type="arc"
         style="fill:url(#radialGradient18871);fill-opacity:1;stroke:url(#linearGradient18869);stroke-width:15.71174622;stroke-linecap:round;stroke-linejoin:round;stroke-miterlimit:4;stroke-dasharray:none;stroke-opacity:1"
         id="path14937"
         sodipodi:cx="463.54642"
         sodipodi:cy="363.8826"
         sodipodi:rx="78.248222"
         sodipodi:ry="78.248222"
         d="M 541.79464 363.8826 A 78.248222 78.248222 0 1 1  385.29819,363.8826 A 78.248222 78.248222 0 1 1  541.79464 363.8826 z"
         transform="matrix(0.8793716,0,0,-0.8793716,-301.28101,573.92247)" />
    </g>
  </g>
</svg>
