<?xml version="1.0" encoding="UTF-8" standalone="no"?>
<!-- Created with Inkscape (http://www.inkscape.org/) -->
<svg
   xmlns:dc="http://purl.org/dc/elements/1.1/"
   xmlns:cc="http://creativecommons.org/ns#"
   xmlns:rdf="http://www.w3.org/1999/02/22-rdf-syntax-ns#"
   xmlns:svg="http://www.w3.org/2000/svg"
   xmlns="http://www.w3.org/2000/svg"
   xmlns:xlink="http://www.w3.org/1999/xlink"
   xmlns:sodipodi="http://sodipodi.sourceforge.net/DTD/sodipodi-0.dtd"
   xmlns:inkscape="http://www.inkscape.org/namespaces/inkscape"
   width="477"
   height="130"
   id="svg2224"
   sodipodi:version="0.32"
   inkscape:version="0.46"
   version="1.0"
   sodipodi:docbase="/mnt/DATI/Documenti/SabayonLinux/3.5 artwork/final"
   sodipodi:docname="sabayon-logo-new.svg"
   inkscape:output_extension="org.inkscape.output.svg.inkscape"
   inkscape:export-filename="/home/fabio/Desktop/logos/sabayon-logo-new.png"
   inkscape:export-xdpi="566.03998"
   inkscape:export-ydpi="566.03998">
  <defs
     id="defs2226">
    <inkscape:perspective
       sodipodi:type="inkscape:persp3d"
       inkscape:vp_x="0 : 65 : 1"
       inkscape:vp_y="0 : 1000 : 0"
       inkscape:vp_z="477 : 65 : 1"
       inkscape:persp3d-origin="238.5 : 43.333333 : 1"
       id="perspective3078" />
    <filter
       inkscape:collect="always"
       x="-0.30570343"
       width="1.6114068"
       y="-0.30570343"
       height="1.6114068"
       id="filter26412">
      <feGaussianBlur
         inkscape:collect="always"
         stdDeviation="21.935263"
         id="feGaussianBlur26414" />
    </filter>
    <linearGradient
       id="linearGradient20867">
      <stop
         id="stop20869"
         offset="0"
         style="stop-color:#ffffff;stop-opacity:1;" />
      <stop
         id="stop20871"
         offset="1"
         style="stop-color:#ffffff;stop-opacity:1;" />
    </linearGradient>
    <linearGradient
       id="linearGradient19849">
      <stop
         style="stop-color:#5b0000;stop-opacity:1;"
         offset="0"
         id="stop19851" />
      <stop
         style="stop-color:#590000;stop-opacity:1;"
         offset="1"
         id="stop19853" />
    </linearGradient>
    <linearGradient
       id="linearGradient17872">
      <stop
         style="stop-color:#5cb6ff;stop-opacity:1;"
         offset="0"
         id="stop17874" />
      <stop
         style="stop-color:#0170ca;stop-opacity:1;"
         offset="1"
         id="stop17876" />
    </linearGradient>
    <linearGradient
       id="linearGradient13843">
      <stop
         style="stop-color:#ffa6a6;stop-opacity:0.65490198;"
         offset="0"
         id="stop13845" />
      <stop
         style="stop-color:#960000;stop-opacity:0;"
         offset="1"
         id="stop13847" />
    </linearGradient>
    <linearGradient
       id="linearGradient10751">
      <stop
         style="stop-color:#ffffff;stop-opacity:1;"
         offset="0"
         id="stop10753" />
      <stop
         style="stop-color:#ffffff;stop-opacity:0;"
         offset="1"
         id="stop10755" />
    </linearGradient>
    <linearGradient
       id="linearGradient6963">
      <stop
         id="stop6965"
         offset="0"
         style="stop-color:#6d0000;stop-opacity:1;" />
      <stop
         id="stop6967"
         offset="1"
         style="stop-color:#ff6565;stop-opacity:1;" />
    </linearGradient>
    <linearGradient
       id="linearGradient4469">
      <stop
         id="stop4471"
         offset="0"
         style="stop-color:#610000;stop-opacity:1;" />
      <stop
         id="stop4473"
         offset="1"
         style="stop-color:#650000;stop-opacity:0;" />
    </linearGradient>
    <linearGradient
       id="linearGradient2827">
      <stop
         style="stop-color:white;stop-opacity:1;"
         offset="0"
         id="stop2829" />
      <stop
         style="stop-color:black;stop-opacity:0;"
         offset="1"
         id="stop2831" />
    </linearGradient>
    <linearGradient
       id="linearGradient3233">
      <stop
         style="stop-color:#ffffff;stop-opacity:0.95151514;"
         offset="0"
         id="stop3235" />
      <stop
         style="stop-color:#ffffff;stop-opacity:0.75757575;"
         offset="1"
         id="stop3237" />
    </linearGradient>
    <radialGradient
       inkscape:collect="always"
       xlink:href="#linearGradient3233"
       id="radialGradient3306"
       gradientUnits="userSpaceOnUse"
       gradientTransform="matrix(0.5068937,-7.2654667e-8,4.7720598e-8,0.3329348,-358.89384,-127.97872)"
       cx="891.9137"
       cy="466.54245"
       fx="891.9137"
       fy="466.54245"
       r="66.533768" />
    <linearGradient
       id="linearGradient2764">
      <stop
         style="stop-color:#7d0000;stop-opacity:1;"
         offset="0"
         id="stop2766" />
      <stop
         id="stop6460"
         offset="0.5"
         style="stop-color:#ffffff;stop-opacity:0.60000002;" />
      <stop
         style="stop-color:#650000;stop-opacity:0.20392157;"
         offset="1"
         id="stop2768" />
    </linearGradient>
    <linearGradient
       id="linearGradient5455">
      <stop
         id="stop5457"
         offset="0"
         style="stop-color:#000000;stop-opacity:0.18181819;" />
      <stop
         id="stop5459"
         offset="1"
         style="stop-color:#000000;stop-opacity:0.16363636;" />
    </linearGradient>
    <linearGradient
       id="linearGradient3550">
      <stop
         style="stop-color:#fbffff;stop-opacity:0.95757574;"
         offset="0"
         id="stop3552" />
      <stop
         style="stop-color:#ffffff;stop-opacity:0.72121215;"
         offset="1"
         id="stop3554" />
    </linearGradient>
    <linearGradient
       inkscape:collect="always"
       xlink:href="#linearGradient3550"
       id="linearGradient3300"
       gradientUnits="userSpaceOnUse"
       gradientTransform="matrix(0.2938184,0,0,0.2938184,47.618695,-86.442196)"
       x1="565.65393"
       y1="52.028114"
       x2="645.57361"
       y2="564.80005" />
    <radialGradient
       inkscape:collect="always"
       xlink:href="#linearGradient3268"
       id="radialGradient4309"
       gradientUnits="userSpaceOnUse"
       gradientTransform="matrix(1.0220136,1.0240208e-5,0,0.1755063,-353.69394,274.47168)"
       cx="512.62"
       cy="-755.21759"
       fx="512.62"
       fy="-755.21759"
       r="512" />
    <linearGradient
       id="linearGradient3268">
      <stop
         style="stop-color:#ad0006;stop-opacity:0.55686277;"
         offset="0"
         id="stop3270" />
      <stop
         style="stop-color:#9e0400;stop-opacity:0;"
         offset="1"
         id="stop3272" />
    </linearGradient>
    <radialGradient
       inkscape:collect="always"
       xlink:href="#linearGradient3268"
       id="radialGradient3276"
       cx="512.62"
       cy="-755.21759"
       fx="512.62"
       fy="-755.21759"
       r="512"
       gradientTransform="matrix(1.0220136,1.0240208e-5,0,0.1755063,-382.18522,512.25906)"
       gradientUnits="userSpaceOnUse" />
    <radialGradient
       inkscape:collect="always"
       xlink:href="#linearGradient3268"
       id="radialGradient2252"
       gradientUnits="userSpaceOnUse"
       gradientTransform="matrix(1.0220136,1.0240208e-5,0,0.1755063,-280.32388,839.53705)"
       cx="512.62"
       cy="-755.21759"
       fx="512.62"
       fy="-755.21759"
       r="512" />
    <radialGradient
       inkscape:collect="always"
       xlink:href="#linearGradient3268"
       id="radialGradient2263"
       gradientUnits="userSpaceOnUse"
       gradientTransform="matrix(3.4232012,3.4299243e-5,0,0.5878526,-24654.213,2014.6919)"
       cx="512.62"
       cy="-755.21759"
       fx="512.62"
       fy="-755.21759"
       r="512" />
    <linearGradient
       inkscape:collect="always"
       xlink:href="#linearGradient13843"
       id="linearGradient13853"
       x1="973.81055"
       y1="387.72672"
       x2="1018.8393"
       y2="387.72672"
       gradientUnits="userSpaceOnUse" />
    <linearGradient
       inkscape:collect="always"
       xlink:href="#linearGradient13843"
       id="linearGradient14923"
       x1="973.8125"
       y1="387.71875"
       x2="1018.8438"
       y2="387.71875"
       gradientUnits="userSpaceOnUse"
       gradientTransform="matrix(1.3658406,0,0,1.3658406,1106.1908,2.0299414)" />
    <linearGradient
       inkscape:collect="always"
       xlink:href="#linearGradient3550"
       id="linearGradient14939"
       gradientUnits="userSpaceOnUse"
       gradientTransform="matrix(0.2938184,0,0,0.2938184,47.618695,-86.442196)"
       x1="565.65393"
       y1="52.028114"
       x2="645.57361"
       y2="564.80005" />
    <radialGradient
       inkscape:collect="always"
       xlink:href="#linearGradient5455"
       id="radialGradient14941"
       gradientUnits="userSpaceOnUse"
       gradientTransform="matrix(2.928411,0,0,2.235288,-899.0274,-606.5392)"
       cx="465.29462"
       cy="503.70474"
       fx="465.29462"
       fy="503.70474"
       r="79.005089" />
    <radialGradient
       inkscape:collect="always"
       xlink:href="#linearGradient2764"
       id="radialGradient14943"
       gradientUnits="userSpaceOnUse"
       gradientTransform="matrix(1.634067,0,0,1.1373812,-293.91948,-49.990622)"
       cx="463.54642"
       cy="363.8826"
       fx="463.54642"
       fy="363.8826"
       r="86.104095" />
    <radialGradient
       inkscape:collect="always"
       xlink:href="#linearGradient3233"
       id="radialGradient14945"
       gradientUnits="userSpaceOnUse"
       gradientTransform="matrix(0.5068937,-7.2654667e-8,4.7720598e-8,0.3329348,-358.89384,-127.97872)"
       cx="891.9137"
       cy="466.54245"
       fx="891.9137"
       fy="466.54245"
       r="66.533768" />
    <radialGradient
       inkscape:collect="always"
       xlink:href="#linearGradient3233"
       id="radialGradient18862"
       gradientUnits="userSpaceOnUse"
       gradientTransform="matrix(1.6977433,-2.4334288e-7,1.5983099e-7,1.1151013,-1273.8119,-23.171109)"
       cx="891.9137"
       cy="466.54245"
       fx="891.9137"
       fy="466.54245"
       r="66.533768" />
    <linearGradient
       inkscape:collect="always"
       xlink:href="#linearGradient3550"
       id="linearGradient18867"
       gradientUnits="userSpaceOnUse"
       gradientTransform="matrix(0.9840884,0,0,0.9840884,88.235437,118.85838)"
       x1="565.65393"
       y1="52.028114"
       x2="645.57361"
       y2="564.80005" />
    <linearGradient
       inkscape:collect="always"
       xlink:href="#linearGradient4469"
       id="linearGradient18869"
       gradientUnits="userSpaceOnUse"
       x1="463.54642"
       y1="480.83444"
       x2="463.54642"
       y2="413.53998" />
    <radialGradient
       inkscape:collect="always"
       xlink:href="#linearGradient2827"
       id="radialGradient18871"
       gradientUnits="userSpaceOnUse"
       gradientTransform="matrix(2.928411,1.1129447e-6,-5.6022465e-7,1.4740787,-899.02713,-219.50059)"
       cx="465.29459"
       cy="508.45303"
       fx="465.29459"
       fy="508.45303"
       r="79.005089" />
    <linearGradient
       inkscape:collect="always"
       xlink:href="#linearGradient19849"
       id="linearGradient19855"
       x1="1029.1802"
       y1="657.88788"
       x2="761.19098"
       y2="657.88788"
       gradientUnits="userSpaceOnUse"
       gradientTransform="matrix(2.8807383,0,0,1.3552332,-439.4884,9.0084106)" />
    <radialGradient
       inkscape:collect="always"
       xlink:href="#linearGradient17872"
       id="radialGradient2242"
       gradientUnits="userSpaceOnUse"
       gradientTransform="matrix(0.7661844,-3.3296199e-4,1.0361223e-3,7.2005065e-2,241.51441,283.36282)"
       cx="514.09979"
       cy="-101.97731"
       fx="514.09979"
       fy="-101.97731"
       r="512" />
    <linearGradient
       inkscape:collect="always"
       xlink:href="#linearGradient3550"
       id="linearGradient5182"
       gradientUnits="userSpaceOnUse"
       gradientTransform="matrix(0.9840884,0,0,0.9840884,88.235437,118.85838)"
       x1="565.65393"
       y1="52.028114"
       x2="645.57361"
       y2="564.80005" />
    <radialGradient
       inkscape:collect="always"
       xlink:href="#linearGradient5455"
       id="radialGradient5184"
       gradientUnits="userSpaceOnUse"
       gradientTransform="matrix(2.928411,0,0,2.235288,-899.0274,-606.5392)"
       cx="465.29462"
       cy="503.70474"
       fx="465.29462"
       fy="503.70474"
       r="79.005089" />
    <radialGradient
       inkscape:collect="always"
       xlink:href="#linearGradient2764"
       id="radialGradient5186"
       gradientUnits="userSpaceOnUse"
       gradientTransform="matrix(1.634067,0,0,1.1373812,-293.91948,-49.990622)"
       cx="463.54642"
       cy="363.8826"
       fx="463.54642"
       fy="363.8826"
       r="86.104095" />
    <radialGradient
       inkscape:collect="always"
       xlink:href="#linearGradient3233"
       id="radialGradient5188"
       gradientUnits="userSpaceOnUse"
       gradientTransform="matrix(1.6977433,-2.4334288e-7,1.5983099e-7,1.1151013,-1273.8119,-23.171109)"
       cx="891.9137"
       cy="466.54245"
       fx="891.9137"
       fy="466.54245"
       r="66.533768" />
    <radialGradient
       inkscape:collect="always"
       xlink:href="#linearGradient2827"
       id="radialGradient5190"
       gradientUnits="userSpaceOnUse"
       gradientTransform="matrix(2.928411,1.1129447e-6,-5.6022465e-7,1.4740787,-899.02713,-219.50059)"
       cx="465.29459"
       cy="508.45303"
       fx="465.29459"
       fy="508.45303"
       r="79.005089" />
    <linearGradient
       inkscape:collect="always"
       xlink:href="#linearGradient4469"
       id="linearGradient5192"
       gradientUnits="userSpaceOnUse"
       x1="463.54642"
       y1="480.83444"
       x2="463.54642"
       y2="413.53998" />
    <linearGradient
       inkscape:collect="always"
       xlink:href="#linearGradient3550"
       id="linearGradient5208"
       gradientUnits="userSpaceOnUse"
       gradientTransform="matrix(0.9840884,0,0,0.9840884,88.235437,118.85838)"
       x1="565.65393"
       y1="52.028114"
       x2="645.57361"
       y2="564.80005" />
    <radialGradient
       inkscape:collect="always"
       xlink:href="#linearGradient3233"
       id="radialGradient5214"
       gradientUnits="userSpaceOnUse"
       gradientTransform="matrix(1.6977433,-2.4334288e-7,1.5983099e-7,1.1151013,-1273.8119,-23.171109)"
       cx="891.9137"
       cy="466.54245"
       fx="891.9137"
       fy="466.54245"
       r="66.533768" />
  </defs>
  <sodipodi:namedview
     id="base"
     pagecolor="#ffffff"
     bordercolor="#666666"
     borderopacity="1.0"
     inkscape:pageopacity="0.0"
     inkscape:pageshadow="2"
     inkscape:zoom="2.702811"
     inkscape:cx="224.83022"
     inkscape:cy="30.957671"
     inkscape:current-layer="layer1"
     inkscape:document-units="px"
     width="477px"
     height="130px"
     inkscape:window-width="1672"
     inkscape:window-height="953"
     inkscape:window-x="2"
     inkscape:window-y="24"
     showgrid="false" />
  <metadata
     id="metadata2229">
    <rdf:RDF>
      <cc:Work
         rdf:about="">
        <dc:format>image/svg+xml</dc:format>
        <dc:type
           rdf:resource="http://purl.org/dc/dcmitype/StillImage" />
      </cc:Work>
    </rdf:RDF>
  </metadata>
  <g
     id="layer1"
     inkscape:label="Layer 1"
     inkscape:groupmode="layer">
    <g
       id="g2462">
      <path
         transform="matrix(0.6849468,0,0,0.2068452,-236.77925,19.835742)"
         d="M 541.79464,363.8826 A 78.248222,78.248222 0 1 1 385.29819,363.8826 A 78.248222,78.248222 0 1 1 541.79464,363.8826 z"
         sodipodi:ry="78.248222"
         sodipodi:rx="78.248222"
         sodipodi:cy="363.8826"
         sodipodi:cx="463.54642"
         id="path25210"
         style="opacity:0.5779468;fill:#000000;fill-opacity:1;stroke:#000000;stroke-width:15.71174049;stroke-linecap:round;stroke-linejoin:round;stroke-miterlimit:4;stroke-dasharray:none;stroke-opacity:1;filter:url(#filter26412)"
         sodipodi:type="arc" />
      <path
         transform="matrix(0.5763367,0,0,0.5763367,-207.83352,-149.97805)"
         d="M 541.79464,363.8826 A 78.248222,78.248222 0 1 1 385.29819,363.8826 A 78.248222,78.248222 0 1 1 541.79464,363.8826 z"
         sodipodi:ry="78.248222"
         sodipodi:rx="78.248222"
         sodipodi:cy="363.8826"
         sodipodi:cx="463.54642"
         id="path37550"
         style="fill:#97141a;fill-opacity:1;stroke:none;stroke-width:15.71174049;stroke-linecap:round;stroke-linejoin:round;stroke-miterlimit:4;stroke-dasharray:none;stroke-opacity:1"
         sodipodi:type="arc" />
      <path
         transform="matrix(0.5763367,0,0,0.5763367,-207.67333,-150.24466)"
         d="M 541.79464,363.8826 A 78.248222,78.248222 0 1 1 385.29819,363.8826 A 78.248222,78.248222 0 1 1 541.79464,363.8826 z"
         sodipodi:ry="78.248222"
         sodipodi:rx="78.248222"
         sodipodi:cy="363.8826"
         sodipodi:cx="463.54642"
         id="path3869"
         style="fill:none;fill-opacity:1;stroke:#ffcc00;stroke-width:15.71174049;stroke-linecap:round;stroke-linejoin:round;stroke-miterlimit:4;stroke-dasharray:none;stroke-opacity:1"
         sodipodi:type="arc" />
      <path
         id="text3875"
         d="M 35.038517,77.66463 C 34.350208,76.878014 33.612744,76.066804 32.826124,75.230997 C 32.039488,74.346056 31.646174,73.485681 31.646181,72.649872 C 31.646174,72.109082 31.793667,71.568276 32.088659,71.02745 C 33.21943,70.683319 34.37479,70.511244 35.554742,70.511225 C 38.504587,70.511244 41.479024,71.519111 44.478062,73.534829 C 45.068014,73.878995 45.830059,74.518131 46.764202,75.452237 C 47.550808,75.894729 48.706168,76.509283 50.230285,77.295898 L 50.599017,77.295898 C 50.549827,77.394239 50.525245,77.492567 50.52527,77.590884 C 50.525245,77.738389 50.648156,77.836717 50.894003,77.885869 C 51.188962,77.935046 51.361037,77.98421 51.410228,78.033362 C 51.705187,78.033374 52.024755,77.861299 52.368932,77.517137 C 52.713054,77.173 53.00804,77.025507 53.253889,77.074659 C 53.647175,76.779686 53.843832,75.845565 53.84386,74.272294 C 54.040489,74.173981 54.138817,74.100234 54.138846,74.051054 C 54.138817,74.001906 54.065071,73.952742 53.917607,73.903561 C 53.81925,73.805249 53.770085,73.70692 53.770114,73.608576 C 53.770085,73.510263 53.794668,73.436517 53.84386,73.387336 C 53.843832,68.667585 53.868414,63.923235 53.917607,59.154272 C 54.015907,53.697072 54.655042,49.419782 55.835014,46.322391 C 56.129969,44.896672 56.941179,43.71673 58.268647,42.782562 C 58.514435,42.733445 58.760257,42.708863 59.006112,42.708815 C 60.087691,42.708863 61.021812,43.225087 61.808476,44.257491 C 61.906768,44.798343 62.250918,45.437478 62.840927,46.174898 C 63.08671,48.092348 63.480024,50.919292 64.02087,54.655739 L 64.02087,64.832749 C 63.824174,64.832774 63.750428,64.955684 63.79963,65.201481 C 63.799592,65.59482 63.799592,65.791477 63.79963,65.791452 C 63.848756,66.578105 63.750428,67.635136 63.504645,68.96255 C 63.701263,68.962571 63.799592,69.085481 63.79963,69.331282 C 63.799592,69.675452 63.799592,69.847527 63.79963,69.847507 C 63.602935,70.093348 63.504606,70.486662 63.504645,71.02745 C 63.553771,71.912425 63.553771,72.379486 63.504645,72.428633 C 63.701263,73.559428 65.05328,74.444384 67.560699,75.083505 C 69.576391,74.788534 71.788782,73.70692 74.197879,71.838661 C 77.246014,69.527959 79.28633,68.126778 80.318834,67.635114 C 81.793706,66.946836 83.391544,66.946836 85.112353,67.635114 C 85.161457,67.880957 85.186039,68.15136 85.186099,68.446325 C 85.186039,69.527959 84.743561,70.92914 83.858663,72.649872 C 82.432842,75.501415 80.466272,77.541732 77.958948,78.770827 C 77.565581,79.26248 76.97561,79.729541 76.189033,80.172009 C 75.402354,80.614497 74.664891,81.032393 73.97664,81.425699 C 72.944142,82.114007 70.363019,83.638098 66.233263,85.997978 C 64.70913,87.227088 63.799592,87.93997 63.504645,88.136625 C 62.422993,88.923255 61.292215,89.464062 60.112308,89.759047 C 59.37481,89.857376 58.661928,89.90654 57.973661,89.90654 C 55.072938,89.90654 52.221412,89.09533 49.419074,87.472907 C 48.091615,86.735446 45.756313,85.039279 42.413161,82.384403 C 39.512454,80.07369 37.054241,78.500435 35.038517,77.66463 M 25.23024,65.053988 L 27.073901,65.053988 C 27.172228,65.201506 27.516377,65.422745 28.106351,65.717706 C 28.696319,65.963551 28.991305,66.283119 28.991309,66.67641 C 30.564561,67.315568 31.719921,68.249689 32.457391,69.478775 C 32.260727,70.216259 31.523264,70.781648 30.244998,71.174943 C 28.032602,70.634155 26.361018,68.593839 25.23024,65.053988 M 85.923564,67.118889 C 86.316817,64.365713 88.357133,62.546636 92.044519,61.661652 C 93.17523,61.710844 93.617708,62.300815 93.371955,63.431566 C 93.17523,64.119892 92.659005,64.955684 91.823279,65.938945 C 90.151628,67.905539 88.283387,68.716749 86.21855,68.372578 L 85.923564,67.118889 M 57.752422,39.611465 C 57.752389,39.414858 57.629479,38.849469 57.38369,37.915296 C 57.236165,37.227049 57.211583,36.612496 57.309943,36.071635 C 57.359075,36.071689 57.432822,36.022525 57.531183,35.924142 C 57.432822,35.432554 57.481986,34.719672 57.678676,33.785495 C 57.924464,32.26146 58.047375,31.474832 58.047408,31.425609 C 58.194868,30.737368 58.637346,30.393219 59.374844,30.393159 C 59.718959,30.393219 59.964781,30.565293 60.112308,30.909384 C 60.30893,31.007772 60.382677,31.351921 60.333548,31.941834 C 60.333512,32.482699 60.505587,32.753102 60.849773,32.753045 C 61.292215,35.752122 61.243051,38.185752 60.70228,40.053943 C 60.456423,40.004829 60.333512,40.12774 60.333548,40.422676 C 60.333512,40.668546 60.259766,40.791457 60.112308,40.791408 C 59.37481,40.742293 58.883167,40.668546 58.637379,40.570168 C 58.096539,40.373561 57.801554,40.053993 57.752422,39.611465"
         style="font-size:6.14553833px;font-style:normal;font-weight:normal;fill:#f4fff5;fill-opacity:1;stroke:none;stroke-width:1px;stroke-linecap:butt;stroke-linejoin:miter;stroke-opacity:1;font-family:Bitstream Vera Sans" />
      <path
         id="text3871"
         d="M 148.90693,68.156551 C 154.39959,68.156574 159.18027,69.139833 163.24896,71.106332 C 167.92788,73.479736 170.26736,76.972003 170.26741,81.583141 C 170.26736,86.058676 167.96179,89.483131 163.35068,91.856517 C 159.28198,93.823034 154.4674,94.806294 148.90693,94.806298 L 132.8357,94.806298 C 131.34385,94.806294 130.05544,94.263806 128.97047,93.178832 C 127.9533,92.161665 127.44472,90.941067 127.44472,89.517035 C 127.44472,88.025194 127.9533,86.770691 128.97047,85.753521 C 129.98763,84.736361 131.27604,84.227779 132.8357,84.227772 L 148.80521,84.227772 C 150.02578,84.227779 151.21247,84.159968 152.36529,84.024339 C 153.58586,83.888724 154.67083,83.685291 155.62022,83.41404 C 156.63735,83.142803 157.48499,82.871559 158.16313,82.600307 C 158.90902,82.26126 159.3837,81.922205 159.58717,81.583141 L 159.58717,81.481424 C 159.24808,80.871135 157.95967,80.294741 155.72194,79.752242 C 153.48414,79.141954 151.21247,78.836805 148.90693,78.836793 C 143.3464,78.836805 138.53182,77.853546 134.46317,75.887012 C 129.7842,73.581453 127.44472,70.123092 127.44472,65.51192 C 127.44472,60.968608 129.7503,57.510248 134.36145,55.136827 C 138.29448,53.102533 143.14297,52.085368 148.90693,52.08533 L 164.87643,52.08533 C 166.43604,52.085368 167.72445,52.593951 168.74166,53.611079 C 169.75878,54.62828 170.26736,55.916689 170.26741,57.476309 C 170.26736,58.968184 169.75878,60.222687 168.74166,61.239823 C 167.72445,62.257017 166.43604,62.7656 164.87643,62.765572 L 148.90693,62.765572 C 147.6863,62.7656 146.4657,62.867316 145.24513,63.070722 C 144.09232,63.206371 143.00734,63.409804 141.9902,63.681021 C 141.04083,63.884481 140.19319,64.155725 139.44728,64.494754 C 138.76916,64.833835 138.32839,65.138984 138.12497,65.410203 C 138.46401,66.020527 139.71851,66.630826 141.88848,67.241102 C 144.12623,67.851424 146.4657,68.156574 148.90693,68.156551 M 217.54973,73.54753 L 217.54973,89.517035 C 217.54969,91.008878 217.0411,92.263381 216.02398,93.280549 C 215.00677,94.297711 213.71836,94.806294 212.15875,94.806298 C 210.05657,94.806294 208.49692,93.85694 207.47979,91.958233 C 205.9201,92.839775 204.19092,93.517885 202.29224,93.992565 C 200.46131,94.53505 198.42699,94.806294 196.18925,94.806298 C 189.06907,94.806294 183.54247,92.365098 179.60944,87.482703 C 176.35451,83.414047 174.72704,78.768994 174.72705,73.54753 C 174.72704,68.25829 176.3206,63.613237 179.50773,59.612357 C 183.50857,54.594375 189.06907,52.085368 196.18925,52.08533 C 203.30938,52.085368 208.83597,54.56047 212.76905,59.510641 C 215.95613,63.511521 217.54969,68.190479 217.54973,73.54753 M 206.86949,73.54753 C 206.86945,71.038541 206.32697,68.9364 205.24202,67.241102 C 203.41109,64.257441 200.3935,62.7656 196.18925,62.765572 C 192.86648,62.7656 190.22186,63.748859 188.25535,65.715353 C 186.35663,67.614086 185.40727,70.190903 185.40729,73.445814 C 185.40727,75.954838 185.94976,78.056979 187.03475,79.752242 C 188.86564,82.735937 191.91713,84.227779 196.18925,84.227772 C 200.32569,84.227779 203.30938,82.769843 205.14031,79.853959 C 206.29306,77.887451 206.86945,75.78531 206.86949,73.54753 M 266.42137,73.54753 C 266.42132,78.565561 264.82777,83.176708 261.64069,87.380987 C 257.70761,92.331192 252.18102,94.806294 245.06089,94.806298 C 242.68748,94.806294 240.61924,94.568955 238.85617,94.094282 C 237.16088,93.687412 235.4317,92.975397 233.66863,91.958233 C 232.65145,93.85694 231.0918,94.806294 228.98966,94.806298 C 227.49781,94.806294 226.20941,94.263806 225.12443,93.178832 C 224.10726,92.161665 223.59868,90.941067 223.59869,89.517035 L 223.59869,25.333866 C 223.59868,23.84209 224.10726,22.587586 225.12443,21.570352 C 226.20941,20.485446 227.49781,19.942958 228.98966,19.942887 C 230.4815,19.942958 231.736,20.45154 232.75318,21.468636 C 233.77033,22.48587 234.27891,23.774279 234.27893,25.333866 L 234.27893,54.628244 C 237.19479,52.933006 240.78877,52.085368 245.06089,52.08533 C 252.18102,52.085368 257.70761,54.56047 261.64069,59.510641 C 264.82777,63.511521 266.42132,68.190479 266.42137,73.54753 M 255.74113,73.54753 C 255.74109,71.038541 255.19861,68.9364 254.11366,67.241102 C 252.28273,64.257441 249.26514,62.7656 245.06089,62.765572 C 241.80593,62.7656 239.19521,63.748859 237.22871,65.715353 C 235.26217,67.614086 234.27891,70.190903 234.27893,73.445814 C 234.27891,75.683594 234.85531,77.785735 236.00811,79.752242 C 237.83899,82.735937 240.85658,84.227779 245.06089,84.227772 C 248.31579,84.227779 250.89261,83.278425 252.79135,81.379708 C 254.75783,79.413198 255.74109,76.802475 255.74113,73.54753 M 315.29301,73.54753 L 315.29301,89.517035 C 315.29297,91.008878 314.78439,92.263381 313.76726,93.280549 C 312.75006,94.297711 311.46165,94.806294 309.90203,94.806298 C 307.79985,94.806294 306.2402,93.85694 305.22307,91.958233 C 303.66338,92.839775 301.9342,93.517885 300.03552,93.992565 C 298.2046,94.53505 296.17027,94.806294 293.93253,94.806298 C 286.81235,94.806294 281.28575,92.365098 277.35272,87.482703 C 274.09779,83.414047 272.47033,78.768994 272.47033,73.54753 C 272.47033,68.25829 274.06388,63.613237 277.25101,59.612357 C 281.25185,54.594375 286.81235,52.085368 293.93253,52.08533 C 301.05266,52.085368 306.57925,54.56047 310.51233,59.510641 C 313.69941,63.511521 315.29297,68.190479 315.29301,73.54753 M 304.61277,73.54753 C 304.61274,71.038541 304.07025,68.9364 302.98531,67.241102 C 301.15438,64.257441 298.13679,62.7656 293.93253,62.765572 C 290.60977,62.7656 287.96514,63.748859 285.99864,65.715353 C 284.09991,67.614086 283.15056,70.190903 283.15057,73.445814 C 283.15056,75.954838 283.69304,78.056979 284.77804,79.752242 C 286.60892,82.735937 289.66041,84.227779 293.93253,84.227772 C 298.06898,84.227779 301.05266,82.769843 302.88359,79.853959 C 304.03634,77.887451 304.61274,75.78531 304.61277,73.54753 M 364.16466,57.476309 L 364.16466,89.517035 C 364.16461,94.53505 362.57105,99.146197 359.38398,103.35049 C 355.38309,108.36849 349.85649,110.8775 342.80417,110.87752 C 341.31231,110.8775 340.0239,110.33501 338.93894,109.25005 C 337.92176,108.23287 337.41317,106.97837 337.41319,105.48654 C 337.41317,103.99468 337.92176,102.74018 338.93894,101.72303 C 339.95609,100.70585 341.24449,100.19727 342.80417,100.19728 C 346.05908,100.19727 348.53418,99.34963 350.22948,97.654362 C 351.58567,96.298136 352.53503,94.568955 353.07755,92.466816 C 349.75477,94.026467 346.33032,94.806294 342.80417,94.806298 C 335.68399,94.806294 330.1574,92.365098 326.22437,87.482703 C 322.96943,83.414047 321.34197,78.768994 321.34197,73.54753 L 321.34197,57.476309 C 321.34197,55.9845 321.85055,54.729997 322.86772,53.712795 C 323.95269,52.627856 325.2411,52.085368 326.73295,52.08533 C 328.22478,52.085368 329.47929,52.593951 330.49646,53.611079 C 331.51362,54.62828 332.0222,55.916689 332.02221,57.476309 L 332.02221,73.445814 C 332.0222,75.954838 332.56469,78.056979 333.64968,79.752242 C 335.48056,82.735937 338.53206,84.227779 342.80417,84.227772 C 346.05908,84.227779 348.63589,83.278425 350.53463,81.379708 C 352.50112,79.413198 353.48438,76.76857 353.48441,73.445814 L 353.48441,57.476309 C 353.48438,56.052311 353.99296,54.797808 355.01016,53.712795 C 356.02729,52.627856 357.28179,52.085368 358.77368,52.08533 C 360.33329,52.085368 361.6217,52.593951 362.63891,53.611079 C 363.65603,54.62828 364.16461,55.916689 364.16466,57.476309 M 413.0363,73.54753 C 413.03625,80.667702 410.56115,86.194298 405.61099,90.127335 C 401.67791,93.246641 397.03286,94.806294 391.67582,94.806298 C 386.52216,94.806294 381.8771,93.246641 377.74064,90.127335 C 372.72262,86.126487 370.21361,80.599891 370.21361,73.54753 C 370.21361,66.427393 372.68871,60.900797 377.63893,56.967726 C 381.77539,53.712832 386.45434,52.085368 391.67582,52.08533 C 396.89724,52.085368 401.50838,53.678927 405.50927,56.866009 C 410.52725,60.866892 413.03625,66.427393 413.0363,73.54753 M 402.35606,73.54753 C 402.35602,70.224809 401.44057,67.647991 399.60971,65.817069 C 397.57535,63.782765 394.93072,62.7656 391.67582,62.765572 C 389.16678,62.7656 387.06464,63.308088 385.36939,64.393037 C 382.38568,66.22396 380.89384,69.275455 380.89386,73.54753 C 380.89384,77.81964 382.35178,80.803324 385.26767,82.49859 C 387.23417,83.651385 389.37022,84.227779 391.67582,84.227772 C 394.11699,84.227779 396.18522,83.685291 397.88053,82.600307 C 400.86418,80.769418 402.35602,77.751829 402.35606,73.54753 M 461.90794,73.54753 L 461.90794,89.517035 C 461.9079,91.008878 461.39931,92.263381 460.38219,93.280549 C 459.36498,94.297711 458.07658,94.806294 456.51696,94.806298 C 455.02508,94.806294 453.77058,94.297711 452.75345,93.280549 C 451.73625,92.263381 451.22767,91.008878 451.2277,89.517035 L 451.2277,73.54753 C 451.22767,71.038541 450.68518,68.9364 449.60024,67.241102 C 447.7693,64.257441 444.75172,62.7656 440.54746,62.765572 C 437.29251,62.7656 434.68178,63.748859 432.71528,65.715353 C 430.74875,67.614086 429.76549,70.224809 429.7655,73.54753 L 429.7655,89.517035 C 429.76549,91.008878 429.2569,92.263381 428.23975,93.280549 C 427.22257,94.297711 425.96807,94.806294 424.47624,94.806298 C 422.98439,94.806294 421.69598,94.263806 420.61101,93.178832 C 419.59384,92.161665 419.08525,90.941067 419.08526,89.517035 L 419.08526,57.476309 C 419.08525,55.9845 419.59384,54.729997 420.61101,53.712795 C 421.69598,52.627856 422.98439,52.085368 424.47624,52.08533 C 426.57837,52.085368 428.13802,53.034722 429.1552,54.933394 C 430.64703,54.119698 432.37621,53.441588 434.34275,52.899062 C 436.30925,52.356612 438.37748,52.085368 440.54746,52.08533 C 447.66759,52.085368 453.19418,54.56047 457.12726,59.510641 C 460.31434,63.511521 461.9079,68.190479 461.90794,73.54753"
         style="font-size:101.71659088px;font-style:normal;font-variant:normal;font-weight:normal;font-stretch:normal;text-align:start;line-height:125%;writing-mode:lr-tb;text-anchor:start;fill:#97141a;fill-opacity:1;stroke:#ffffff;stroke-width:3.14810205;stroke-linecap:round;stroke-linejoin:round;stroke-miterlimit:4;stroke-opacity:1;font-family:Entangled Plain BRK"
         transform="scale(1.0071791,0.9928721)" />
    </g>
  </g>
</svg>
