<?xml version="1.0" encoding="UTF-8" standalone="no"?>
<!-- Created with Inkscape (http://www.inkscape.org/) -->
<svg
   xmlns:dc="http://purl.org/dc/elements/1.1/"
   xmlns:cc="http://web.resource.org/cc/"
   xmlns:rdf="http://www.w3.org/1999/02/22-rdf-syntax-ns#"
   xmlns:svg="http://www.w3.org/2000/svg"
   xmlns="http://www.w3.org/2000/svg"
   xmlns:xlink="http://www.w3.org/1999/xlink"
   xmlns:sodipodi="http://sodipodi.sourceforge.net/DTD/sodipodi-0.dtd"
   xmlns:inkscape="http://www.inkscape.org/namespaces/inkscape"
   width="1024"
   height="768"
   id="svg2224"
   sodipodi:version="0.32"
   inkscape:version="0.45.1"
   version="1.0"
   sodipodi:docbase="/home/fabio/Desktop/press"
   sodipodi:docname="sabayon-bootsplash-quiet.svg"
   inkscape:output_extension="org.inkscape.output.svg.inkscape">
  <defs
     id="defs2226">
    <linearGradient
       id="linearGradient20867">
      <stop
         id="stop20869"
         offset="0"
         style="stop-color:#ffffff;stop-opacity:1;" />
      <stop
         id="stop20871"
         offset="1"
         style="stop-color:#ffffff;stop-opacity:1;" />
    </linearGradient>
    <linearGradient
       id="linearGradient19849">
      <stop
         style="stop-color:#5b0000;stop-opacity:1;"
         offset="0"
         id="stop19851" />
      <stop
         style="stop-color:#590000;stop-opacity:1;"
         offset="1"
         id="stop19853" />
    </linearGradient>
    <linearGradient
       id="linearGradient17872">
      <stop
         style="stop-color:#ae0000;stop-opacity:1;"
         offset="0"
         id="stop17874" />
      <stop
         style="stop-color:#580303;stop-opacity:1;"
         offset="1"
         id="stop17876" />
    </linearGradient>
    <linearGradient
       id="linearGradient13843">
      <stop
         style="stop-color:#ffa6a6;stop-opacity:0.65490198;"
         offset="0"
         id="stop13845" />
      <stop
         style="stop-color:#960000;stop-opacity:0;"
         offset="1"
         id="stop13847" />
    </linearGradient>
    <linearGradient
       id="linearGradient10751">
      <stop
         style="stop-color:#ffffff;stop-opacity:1;"
         offset="0"
         id="stop10753" />
      <stop
         style="stop-color:#ffffff;stop-opacity:0;"
         offset="1"
         id="stop10755" />
    </linearGradient>
    <linearGradient
       id="linearGradient6963">
      <stop
         id="stop6965"
         offset="0"
         style="stop-color:#6d0000;stop-opacity:1;" />
      <stop
         id="stop6967"
         offset="1"
         style="stop-color:#ff6565;stop-opacity:1;" />
    </linearGradient>
    <linearGradient
       id="linearGradient4469">
      <stop
         id="stop4471"
         offset="0"
         style="stop-color:#610000;stop-opacity:1;" />
      <stop
         id="stop4473"
         offset="1"
         style="stop-color:#650000;stop-opacity:0;" />
    </linearGradient>
    <linearGradient
       inkscape:collect="always"
       xlink:href="#linearGradient4469"
       id="linearGradient3310"
       gradientUnits="userSpaceOnUse"
       x1="463.54642"
       y1="480.83444"
       x2="463.54642"
       y2="415.87531" />
    <linearGradient
       id="linearGradient2827">
      <stop
         style="stop-color:white;stop-opacity:1;"
         offset="0"
         id="stop2829" />
      <stop
         style="stop-color:black;stop-opacity:0;"
         offset="1"
         id="stop2831" />
    </linearGradient>
    <radialGradient
       inkscape:collect="always"
       xlink:href="#linearGradient2827"
       id="radialGradient3308"
       gradientUnits="userSpaceOnUse"
       gradientTransform="matrix(2.928411,1.0423852e-6,-5.1418526e-7,1.4445195,-899.02715,-204.4711)"
       cx="465.29459"
       cy="508.45303"
       fx="465.29459"
       fy="508.45303"
       r="79.005089" />
    <linearGradient
       id="linearGradient3233">
      <stop
         style="stop-color:#ffffff;stop-opacity:0.95151514;"
         offset="0"
         id="stop3235" />
      <stop
         style="stop-color:#ffffff;stop-opacity:0.75757575;"
         offset="1"
         id="stop3237" />
    </linearGradient>
    <radialGradient
       inkscape:collect="always"
       xlink:href="#linearGradient3233"
       id="radialGradient3306"
       gradientUnits="userSpaceOnUse"
       gradientTransform="matrix(0.5068937,-7.2654667e-8,4.7720598e-8,0.3329348,-358.89384,-127.97872)"
       cx="891.9137"
       cy="466.54245"
       fx="891.9137"
       fy="466.54245"
       r="66.533768" />
    <linearGradient
       id="linearGradient2764">
      <stop
         style="stop-color:#7d0000;stop-opacity:1;"
         offset="0"
         id="stop2766" />
      <stop
         id="stop6460"
         offset="0.5"
         style="stop-color:#ffffff;stop-opacity:0.60000002;" />
      <stop
         style="stop-color:#650000;stop-opacity:0.20392157;"
         offset="1"
         id="stop2768" />
    </linearGradient>
    <radialGradient
       inkscape:collect="always"
       xlink:href="#linearGradient2764"
       id="radialGradient3304"
       gradientUnits="userSpaceOnUse"
       gradientTransform="matrix(1.634067,0,0,1.1373812,-293.91948,-49.990622)"
       cx="463.54642"
       cy="363.8826"
       fx="463.54642"
       fy="363.8826"
       r="86.104095" />
    <linearGradient
       id="linearGradient5455">
      <stop
         id="stop5457"
         offset="0"
         style="stop-color:#000000;stop-opacity:0.18181819;" />
      <stop
         id="stop5459"
         offset="1"
         style="stop-color:#000000;stop-opacity:0.16363636;" />
    </linearGradient>
    <radialGradient
       inkscape:collect="always"
       xlink:href="#linearGradient5455"
       id="radialGradient3302"
       gradientUnits="userSpaceOnUse"
       gradientTransform="matrix(2.928411,0,0,2.235288,-899.0274,-606.5392)"
       cx="465.29462"
       cy="503.70474"
       fx="465.29462"
       fy="503.70474"
       r="79.005089" />
    <linearGradient
       id="linearGradient3550">
      <stop
         style="stop-color:#fbffff;stop-opacity:0.95757574;"
         offset="0"
         id="stop3552" />
      <stop
         style="stop-color:#ffffff;stop-opacity:0.72121215;"
         offset="1"
         id="stop3554" />
    </linearGradient>
    <linearGradient
       inkscape:collect="always"
       xlink:href="#linearGradient3550"
       id="linearGradient3300"
       gradientUnits="userSpaceOnUse"
       gradientTransform="matrix(0.2938184,0,0,0.2938184,47.618695,-86.442196)"
       x1="565.65393"
       y1="52.028114"
       x2="645.57361"
       y2="564.80005" />
    <radialGradient
       inkscape:collect="always"
       xlink:href="#linearGradient3268"
       id="radialGradient4309"
       gradientUnits="userSpaceOnUse"
       gradientTransform="matrix(1.0220136,1.0240208e-5,0,0.1755063,-353.69394,274.47168)"
       cx="512.62"
       cy="-755.21759"
       fx="512.62"
       fy="-755.21759"
       r="512" />
    <filter
       inkscape:collect="always"
       x="-0.02938958"
       width="1.0587792"
       y="-0.17180688"
       height="1.3436138"
       id="filter7358">
      <feGaussianBlur
         inkscape:collect="always"
         stdDeviation="4.8166335"
         id="feGaussianBlur7360" />
    </filter>
    <linearGradient
       id="linearGradient3268">
      <stop
         style="stop-color:#ad0006;stop-opacity:0.55686277;"
         offset="0"
         id="stop3270" />
      <stop
         style="stop-color:#9e0400;stop-opacity:0;"
         offset="1"
         id="stop3272" />
    </linearGradient>
    <radialGradient
       inkscape:collect="always"
       xlink:href="#linearGradient3268"
       id="radialGradient3276"
       cx="512.62"
       cy="-755.21759"
       fx="512.62"
       fy="-755.21759"
       r="512"
       gradientTransform="matrix(1.0220136,1.0240208e-5,0,0.1755063,-382.18522,512.25906)"
       gradientUnits="userSpaceOnUse" />
    <radialGradient
       inkscape:collect="always"
       xlink:href="#linearGradient3268"
       id="radialGradient2252"
       gradientUnits="userSpaceOnUse"
       gradientTransform="matrix(1.0220136,1.0240208e-5,0,0.1755063,-280.32388,839.53705)"
       cx="512.62"
       cy="-755.21759"
       fx="512.62"
       fy="-755.21759"
       r="512" />
    <radialGradient
       inkscape:collect="always"
       xlink:href="#linearGradient3268"
       id="radialGradient2263"
       gradientUnits="userSpaceOnUse"
       gradientTransform="matrix(3.4232012,3.4299243e-5,0,0.5878526,-24654.213,2014.6919)"
       cx="512.62"
       cy="-755.21759"
       fx="512.62"
       fy="-755.21759"
       r="512" />
    <radialGradient
       inkscape:collect="always"
       xlink:href="#linearGradient3268"
       id="radialGradient2305"
       gradientUnits="userSpaceOnUse"
       gradientTransform="matrix(1.0220136,1.0240208e-5,0,0.1755063,-353.69394,274.47168)"
       cx="512.62"
       cy="-755.21759"
       fx="512.62"
       fy="-755.21759"
       r="512" />
    <radialGradient
       inkscape:collect="always"
       xlink:href="#linearGradient3268"
       id="radialGradient2307"
       gradientUnits="userSpaceOnUse"
       gradientTransform="matrix(1.0220136,1.0240208e-5,0,0.1755063,-795.06576,1136.7919)"
       cx="512.62"
       cy="-755.21759"
       fx="512.62"
       fy="-755.21759"
       r="512" />
    <linearGradient
       inkscape:collect="always"
       xlink:href="#linearGradient13843"
       id="linearGradient13853"
       x1="973.81055"
       y1="387.72672"
       x2="1018.8393"
       y2="387.72672"
       gradientUnits="userSpaceOnUse" />
    <linearGradient
       inkscape:collect="always"
       xlink:href="#linearGradient13843"
       id="linearGradient14923"
       x1="973.8125"
       y1="387.71875"
       x2="1018.8438"
       y2="387.71875"
       gradientUnits="userSpaceOnUse" />
    <linearGradient
       inkscape:collect="always"
       xlink:href="#linearGradient3550"
       id="linearGradient14939"
       gradientUnits="userSpaceOnUse"
       gradientTransform="matrix(0.2938184,0,0,0.2938184,47.618695,-86.442196)"
       x1="565.65393"
       y1="52.028114"
       x2="645.57361"
       y2="564.80005" />
    <radialGradient
       inkscape:collect="always"
       xlink:href="#linearGradient5455"
       id="radialGradient14941"
       gradientUnits="userSpaceOnUse"
       gradientTransform="matrix(2.928411,0,0,2.235288,-899.0274,-606.5392)"
       cx="465.29462"
       cy="503.70474"
       fx="465.29462"
       fy="503.70474"
       r="79.005089" />
    <radialGradient
       inkscape:collect="always"
       xlink:href="#linearGradient2764"
       id="radialGradient14943"
       gradientUnits="userSpaceOnUse"
       gradientTransform="matrix(1.634067,0,0,1.1373812,-293.91948,-49.990622)"
       cx="463.54642"
       cy="363.8826"
       fx="463.54642"
       fy="363.8826"
       r="86.104095" />
    <radialGradient
       inkscape:collect="always"
       xlink:href="#linearGradient3233"
       id="radialGradient14945"
       gradientUnits="userSpaceOnUse"
       gradientTransform="matrix(0.5068937,-7.2654667e-8,4.7720598e-8,0.3329348,-358.89384,-127.97872)"
       cx="891.9137"
       cy="466.54245"
       fx="891.9137"
       fy="466.54245"
       r="66.533768" />
    <radialGradient
       inkscape:collect="always"
       xlink:href="#linearGradient17872"
       id="radialGradient17880"
       cx="529.45569"
       cy="579.77747"
       fx="529.45569"
       fy="579.77747"
       r="512"
       gradientTransform="matrix(1.0382766,0,0,0.635633,-20.265746,162.30737)"
       gradientUnits="userSpaceOnUse" />
    <radialGradient
       inkscape:collect="always"
       xlink:href="#linearGradient3233"
       id="radialGradient18862"
       gradientUnits="userSpaceOnUse"
       gradientTransform="matrix(1.6977433,-2.4334288e-7,1.5983099e-7,1.1151013,-1273.8119,-23.171109)"
       cx="891.9137"
       cy="466.54245"
       fx="891.9137"
       fy="466.54245"
       r="66.533768" />
    <linearGradient
       inkscape:collect="always"
       xlink:href="#linearGradient3550"
       id="linearGradient18867"
       gradientUnits="userSpaceOnUse"
       gradientTransform="matrix(0.9840884,0,0,0.9840884,88.235437,118.85838)"
       x1="565.65393"
       y1="52.028114"
       x2="645.57361"
       y2="564.80005" />
    <linearGradient
       inkscape:collect="always"
       xlink:href="#linearGradient4469"
       id="linearGradient18869"
       gradientUnits="userSpaceOnUse"
       x1="463.54642"
       y1="480.83444"
       x2="463.54642"
       y2="413.53998" />
    <radialGradient
       inkscape:collect="always"
       xlink:href="#linearGradient2827"
       id="radialGradient18871"
       gradientUnits="userSpaceOnUse"
       gradientTransform="matrix(2.928411,1.1129447e-6,-5.6022465e-7,1.4740787,-899.02713,-219.50059)"
       cx="465.29459"
       cy="508.45303"
       fx="465.29459"
       fy="508.45303"
       r="79.005089" />
    <linearGradient
       inkscape:collect="always"
       xlink:href="#linearGradient19849"
       id="linearGradient19855"
       x1="1029.1802"
       y1="657.88788"
       x2="761.19098"
       y2="657.88788"
       gradientUnits="userSpaceOnUse"
       gradientTransform="matrix(2.0320715,0,0,0.992692,-1051.7143,4.8078992)" />
    <linearGradient
       inkscape:collect="always"
       xlink:href="#linearGradient19849"
       id="linearGradient3737"
       gradientUnits="userSpaceOnUse"
       gradientTransform="matrix(1.3121038,0,0,0.9974956,-674.94896,-114.82126)"
       x1="1029.1802"
       y1="657.88788"
       x2="761.19098"
       y2="657.88788" />
  </defs>
  <sodipodi:namedview
     id="base"
     pagecolor="#ffffff"
     bordercolor="#666666"
     borderopacity="1.0"
     inkscape:pageopacity="0.0"
     inkscape:pageshadow="2"
     inkscape:zoom="0.92682074"
     inkscape:cx="518.48637"
     inkscape:cy="421.05336"
     inkscape:current-layer="layer1"
     inkscape:document-units="px"
     width="1024px"
     height="768px"
     inkscape:window-width="1672"
     inkscape:window-height="954"
     inkscape:window-x="1680"
     inkscape:window-y="0" />
  <metadata
     id="metadata2229">
    <rdf:RDF>
      <cc:Work
         rdf:about="">
        <dc:format>image/svg+xml</dc:format>
        <dc:type
           rdf:resource="http://purl.org/dc/dcmitype/StillImage" />
      </cc:Work>
    </rdf:RDF>
  </metadata>
  <g
     id="layer1"
     inkscape:label="Layer 1"
     inkscape:groupmode="layer">
    <path
       style="fill:url(#radialGradient17880);fill-opacity:1.0;stroke:none;stroke-width:1.87600005;stroke-linejoin:round;stroke-miterlimit:4;stroke-dasharray:none;stroke-opacity:1"
       d="M 0 0 L 0 768 L 1024 768 L 1024 0 L 0 0 z "
       id="rect2486"
       inkscape:export-filename="/home/fabio/Desktop/sabayonlinux-artwork-3.40/sabayonlinux-artwork/gensplash/sabayon/images/background-2048x1536.png"
       inkscape:export-xdpi="180"
       inkscape:export-ydpi="180" />
    <path
       style="fill:url(#linearGradient14923);fill-opacity:1.0;stroke:none;stroke-width:4.38600016;stroke-linejoin:round;stroke-miterlimit:4;stroke-dasharray:none;stroke-opacity:1"
       d="M 1000.375 -14.125 L 994.15625 -6.78125 L 986.84375 -12.3125 L 986.875 -2.3125 L 974.1875 -3.625 L 981.09375 7.65625 L 973.8125 12.6875 L 980.375 14.8125 L 976.0625 24.53125 L 990.0625 21.125 L 993.59375 32.8125 L 998.0625 26.625 L 1003.4375 31.4375 L 1004.3125 19.9375 L 1018.8438 20.25 L 1012.2188 11.1875 L 1018.4688 7.5625 L 1010.5 4.28125 L 1014.6562 -7.65625 L 1002.625 -3.6875 L 1000.375 -14.125 z M 1000.375 40.15625 L 994.15625 47.46875 L 986.84375 41.9375 L 986.875 51.9375 L 974.1875 50.625 L 981.09375 61.90625 L 973.8125 66.96875 L 980.375 69.0625 L 976.0625 78.78125 L 990.09375 75.40625 L 993.59375 87.09375 L 998.0625 80.875 L 1003.4375 85.6875 L 1004.3125 74.1875 L 1018.8438 74.5 L 1012.2188 65.4375 L 1018.4688 61.8125 L 1010.5 58.53125 L 1014.6562 46.59375 L 1002.5938 50.5625 L 1000.375 40.15625 z M 1000.375 94.125 L 994.125 101.46875 L 986.84375 95.90625 L 986.875 105.9375 L 974.1875 104.625 L 981.09375 115.875 L 973.8125 120.9375 L 980.375 123.03125 L 976.0625 132.78125 L 990.0625 129.375 L 993.59375 141.0625 L 998.0625 134.875 L 1003.4375 139.6875 L 1004.3125 128.1875 L 1018.8438 128.5 L 1012.1875 119.4375 L 1018.4688 115.8125 L 1010.5 112.53125 L 1014.6562 100.5625 L 1002.5938 104.53125 L 1000.375 94.125 z M 1000.375 148.375 L 994.125 155.71875 L 986.84375 150.1875 L 986.875 160.1875 L 974.1875 158.875 L 981.09375 170.15625 L 973.8125 175.1875 L 980.375 177.3125 L 976.0625 187.03125 L 990.0625 183.625 L 993.59375 195.3125 L 998.0625 189.125 L 1003.4375 193.9375 L 1004.3125 182.4375 L 1018.8438 182.75 L 1012.2188 173.6875 L 1018.4688 170.0625 L 1010.5 166.78125 L 1014.6562 154.84375 L 1002.625 158.8125 L 1000.375 148.375 z M 1000.375 203.28125 L 994.15625 210.59375 L 986.84375 205.0625 L 986.875 215.0625 L 974.1875 213.75 L 981.09375 225.03125 L 973.8125 230.09375 L 980.375 232.1875 L 976.0625 241.90625 L 990.09375 238.53125 L 993.59375 250.21875 L 998.0625 244 L 1003.4375 248.8125 L 1004.3125 237.3125 L 1018.8438 237.625 L 1012.1875 228.5625 L 1018.4688 224.9375 L 1010.5 221.65625 L 1014.6562 209.71875 L 1002.5938 213.6875 L 1000.375 203.28125 z M 1000.375 257.53125 L 994.125 264.875 L 986.84375 259.3125 L 986.875 269.3125 L 974.1875 268 L 981.09375 279.28125 L 973.8125 284.34375 L 980.375 286.4375 L 976.0625 296.15625 L 990.0625 292.78125 L 993.59375 304.46875 L 998.0625 298.28125 L 1003.4375 303.09375 L 1004.3125 291.5625 L 1018.8438 291.875 L 1012.1875 282.8125 L 1018.4688 279.1875 L 1010.5 275.90625 L 1014.6562 263.96875 L 1002.5938 267.9375 L 1000.375 257.53125 z M 1000.375 311.53125 L 994.15625 318.84375 L 986.84375 313.3125 L 986.875 323.3125 L 974.1875 322 L 981.09375 333.28125 L 973.8125 338.34375 L 980.375 340.4375 L 976.0625 350.15625 L 990.09375 346.78125 L 993.59375 358.46875 L 998.0625 352.25 L 1003.4375 357.0625 L 1004.3125 345.5625 L 1018.8438 345.875 L 1012.2188 336.8125 L 1018.4688 333.1875 L 1010.5 329.90625 L 1014.6562 317.96875 L 1002.5938 321.9375 L 1000.375 311.53125 z M 1000.375 365.78125 L 994.15625 373.09375 L 986.84375 367.5625 L 986.875 377.5625 L 974.1875 376.25 L 981.09375 387.53125 L 973.8125 392.59375 L 980.375 394.6875 L 976.0625 404.40625 L 990.09375 401.03125 L 993.59375 412.71875 L 998.0625 406.5 L 1003.4375 411.3125 L 1004.3125 399.8125 L 1018.8438 400.125 L 1012.2188 391.0625 L 1018.4688 387.4375 L 1010.5 384.15625 L 1014.6562 372.21875 L 1002.5938 376.1875 L 1000.375 365.78125 z M 1000.375 417 L 994.125 424.34375 L 986.84375 418.78125 L 986.875 428.78125 L 974.1875 427.46875 L 981.09375 438.75 L 973.8125 443.8125 L 980.375 445.90625 L 976.0625 455.625 L 990.0625 452.25 L 993.59375 463.9375 L 998.0625 457.75 L 1003.4375 462.5625 L 1004.3125 451.03125 L 1018.8438 451.34375 L 1012.1875 442.28125 L 1018.4688 438.65625 L 1010.5 435.375 L 1014.6562 423.4375 L 1002.5938 427.40625 L 1000.375 417 z M 1000.375 471.25 L 994.125 478.59375 L 986.84375 473.03125 L 986.875 483.0625 L 974.1875 481.75 L 981.09375 493 L 973.8125 498.0625 L 980.375 500.15625 L 976.0625 509.875 L 990.0625 506.5 L 993.59375 518.1875 L 998.0625 512 L 1003.4375 516.8125 L 1004.3125 505.28125 L 1018.8438 505.59375 L 1012.1875 496.5625 L 1018.4688 492.9375 L 1010.5 489.65625 L 1014.6562 477.6875 L 1002.5938 481.65625 L 1000.375 471.25 z M 1000.375 525.25 L 994.125 532.59375 L 986.84375 527.03125 L 986.875 537.03125 L 974.1875 535.71875 L 981.09375 547 L 973.8125 552.0625 L 980.375 554.15625 L 976.0625 563.875 L 990.09375 560.5 L 993.59375 572.1875 L 998.0625 565.96875 L 1003.4375 570.78125 L 1004.3125 559.28125 L 1018.8438 559.59375 L 1012.1875 550.53125 L 1018.4688 546.90625 L 1010.5 543.625 L 1014.6562 531.6875 L 1002.625 535.65625 L 1000.375 525.25 z M 1000.375 579.5 L 994.125 586.84375 L 986.84375 581.28125 L 986.875 591.28125 L 974.1875 589.96875 L 981.09375 601.25 L 973.8125 606.3125 L 980.375 608.40625 L 976.0625 618.125 L 990.0625 614.75 L 993.59375 626.4375 L 998.0625 620.25 L 1003.4375 625.0625 L 1004.3125 613.53125 L 1018.8438 613.84375 L 1012.1875 604.78125 L 1018.4688 601.15625 L 1010.5 597.875 L 1014.6562 585.9375 L 1002.5938 589.90625 L 1000.375 579.5 z M 1000.375 634.375 L 994.125 641.71875 L 986.84375 636.15625 L 986.875 646.1875 L 974.1875 644.875 L 981.09375 656.125 L 973.8125 661.1875 L 980.375 663.28125 L 976.0625 673.03125 L 990.0625 669.625 L 993.59375 681.3125 L 998.0625 675.125 L 1003.4375 679.9375 L 1004.3125 668.40625 L 1018.8438 668.71875 L 1012.1875 659.6875 L 1018.4688 656.0625 L 1010.5 652.78125 L 1014.6562 640.8125 L 1002.5938 644.78125 L 1000.375 634.375 z M 1000.375 688.625 L 994.125 695.96875 L 986.84375 690.40625 L 986.875 700.4375 L 974.1875 699.125 L 981.09375 710.40625 L 973.8125 715.4375 L 980.375 717.5625 L 976.0625 727.28125 L 990.0625 723.875 L 993.59375 735.5625 L 998.0625 729.375 L 1003.4375 734.1875 L 1004.3125 722.6875 L 1018.8438 723 L 1012.2188 713.9375 L 1018.4688 710.3125 L 1010.5 707.03125 L 1014.6562 695.09375 L 1002.625 699.0625 L 1000.375 688.625 z M 1000.375 742.625 L 994.125 749.96875 L 986.84375 744.40625 L 986.875 754.4375 L 974.1875 753.125 L 981.09375 764.375 L 973.8125 769.4375 L 980.375 771.53125 L 976.0625 781.25 L 990.0625 777.875 L 993.59375 789.5625 L 998.0625 783.375 L 1003.4375 788.1875 L 1004.3125 776.65625 L 1018.8438 776.96875 L 1012.1875 767.9375 L 1018.4688 764.3125 L 1010.5 761.03125 L 1014.6562 749.0625 L 1002.5938 753.03125 L 1000.375 742.625 z "
       id="path12701" />
    <rect
       style="opacity:1;fill:url(#linearGradient19855);fill-opacity:1;stroke:#ffffff;stroke-width:1.25837588;stroke-linejoin:round;stroke-miterlimit:4;stroke-dasharray:none;stroke-opacity:1"
       id="rect18873"
       width="538.32751"
       height="50.581623"
       x="517.3645"
       y="632.59711"
       ry="9.9269171" />
    <g
       id="g21210"
       transform="translate(16.16064,-94)">
      <text
         inkscape:export-ydpi="35.838501"
         inkscape:export-xdpi="35.838501"
         inkscape:export-filename="/home/fabio/Desktop/logo_mid.png"
         transform="scale(1.0071791,0.9928721)"
         sodipodi:linespacing="125%"
         id="text14927"
         y="543.7796"
         x="333.65735"
         style="font-size:158.52349854px;font-style:normal;font-variant:normal;font-weight:normal;font-stretch:normal;text-align:start;line-height:125%;writing-mode:lr-tb;text-anchor:start;fill:#6c0104;fill-opacity:1;stroke:url(#linearGradient18867);stroke-width:4.90626144;stroke-linecap:round;stroke-linejoin:round;stroke-miterlimit:4;stroke-dasharray:none;stroke-opacity:1;font-family:Entangled Plain BRK"
         xml:space="preserve"><tspan
           style="fill:#6c0104;fill-opacity:1;stroke:url(#linearGradient18867);stroke-width:4.90626144;stroke-linecap:round;stroke-linejoin:round;stroke-miterlimit:4;stroke-dasharray:none;stroke-opacity:1"
           y="543.7796"
           x="333.65735"
           id="tspan14929"
           sodipodi:role="line">sabayon</tspan></text>
      <path
         transform="matrix(0.8793719,0,0,0.8793719,-166.84984,178.14987)"
         d="M 541.79464 363.8826 A 78.248222 78.248222 0 1 1  385.29819,363.8826 A 78.248222 78.248222 0 1 1  541.79464 363.8826 z"
         sodipodi:ry="78.248222"
         sodipodi:rx="78.248222"
         sodipodi:cy="363.8826"
         sodipodi:cx="463.54642"
         id="path14931"
         style="fill:url(#radialGradient14941);fill-opacity:1;stroke:url(#radialGradient14943);stroke-width:15.71174049;stroke-linecap:round;stroke-linejoin:round;stroke-miterlimit:4;stroke-dasharray:none;stroke-opacity:1"
         sodipodi:type="arc" />
      <text
         id="text14933"
         y="542.47345"
         x="188.16272"
         style="font-size:9.37683582px;font-style:normal;font-weight:normal;fill:url(#radialGradient18862);fill-opacity:1;stroke:none;stroke-width:1px;stroke-linecap:butt;stroke-linejoin:miter;stroke-opacity:1;font-family:Bitstream Vera Sans"
         xml:space="preserve"><tspan
           style="font-size:112.5220108px;font-style:normal;font-variant:normal;font-weight:normal;font-stretch:normal;text-align:start;line-height:125%;writing-mode:lr-tb;text-anchor:start;fill:url(#radialGradient18862);fill-opacity:1;stroke:none;font-family:AnimalTracks"
           y="542.47345"
           x="188.16272"
           id="tspan14935"
           sodipodi:role="line">q</tspan></text>
      <path
         sodipodi:type="arc"
         style="fill:url(#radialGradient18871);fill-opacity:1;stroke:url(#linearGradient18869);stroke-width:15.71174622;stroke-linecap:round;stroke-linejoin:round;stroke-miterlimit:4;stroke-dasharray:none;stroke-opacity:1"
         id="path14937"
         sodipodi:cx="463.54642"
         sodipodi:cy="363.8826"
         sodipodi:rx="78.248222"
         sodipodi:ry="78.248222"
         d="M 541.79464 363.8826 A 78.248222 78.248222 0 1 1  385.29819,363.8826 A 78.248222 78.248222 0 1 1  541.79464 363.8826 z"
         transform="matrix(0.8793716,0,0,-0.8793716,-166.42387,969.27053)" />
    </g>
    <text
       xml:space="preserve"
       style="font-size:12px;font-style:normal;font-weight:normal;line-height:125%;fill:#000000;fill-opacity:1;stroke:none;stroke-width:1px;stroke-linecap:butt;stroke-linejoin:miter;stroke-opacity:1;font-family:Bitstream Vera Sans"
       x="729.30652"
       y="670.85492"
       id="text19857"
       sodipodi:linespacing="125%"><tspan
         sodipodi:role="line"
         id="tspan19859"
         x="729.30652"
         y="670.85492"
         style="font-size:36px;font-style:normal;font-variant:normal;font-weight:bold;font-stretch:normal;text-align:start;line-height:125%;writing-mode:lr-tb;text-anchor:start;fill:#ffffff;fill-opacity:1;font-family:DejaVu Sans">Please wait</tspan></text>
    <path
       style="fill:#ffffff;fill-opacity:1;stroke:#ffffff;stroke-width:0.787;stroke-linejoin:round;stroke-miterlimit:4;stroke-dasharray:none;stroke-opacity:1"
       d="M 999.72144,638.0663 L 994.50773,644.19694 L 988.37709,639.55966 L 988.40333,647.94345 L 977.7664,646.84308 L 983.55641,656.30104 L 977.45201,660.54533 L 982.95387,662.30068 L 979.33836,670.44868 L 991.10182,667.61915 L 994.03615,677.4177 L 997.78269,672.20403 L 1002.289,676.23873 L 1003.0226,666.59738 L 1015.2053,666.85937 L 1009.651,659.26156 L 1014.8909,656.22244 L 1008.21,653.47151 L 1011.6945,643.46336 L 1001.5816,646.79068 L 999.72144,638.0663 z "
       id="path19880" />
  </g>
</svg>
