<?xml version="1.0" encoding="UTF-8" standalone="no"?>
<!-- Created with Inkscape (http://www.inkscape.org/) -->
<svg
   xmlns:dc="http://purl.org/dc/elements/1.1/"
   xmlns:cc="http://creativecommons.org/ns#"
   xmlns:rdf="http://www.w3.org/1999/02/22-rdf-syntax-ns#"
   xmlns:svg="http://www.w3.org/2000/svg"
   xmlns="http://www.w3.org/2000/svg"
   xmlns:xlink="http://www.w3.org/1999/xlink"
   xmlns:sodipodi="http://sodipodi.sourceforge.net/DTD/sodipodi-0.dtd"
   xmlns:inkscape="http://www.inkscape.org/namespaces/inkscape"
   width="625"
   height="180"
   id="svg2245"
   sodipodi:version="0.32"
   inkscape:version="0.46"
   version="1.0"
   sodipodi:docbase="/mnt/DATI/Documenti/SabayonLinux/3.5 artwork"
   sodipodi:docname="sabayon-text-only.svg"
   inkscape:output_extension="org.inkscape.output.svg.inkscape">
  <defs
     id="defs2247">
    <inkscape:perspective
       sodipodi:type="inkscape:persp3d"
       inkscape:vp_x="0 : 90 : 1"
       inkscape:vp_y="0 : 1000 : 0"
       inkscape:vp_z="625 : 90 : 1"
       inkscape:persp3d-origin="312.5 : 60 : 1"
       id="perspective36" />
    <linearGradient
       id="linearGradient4469">
      <stop
         id="stop4471"
         offset="0"
         style="stop-color:#610000;stop-opacity:1;" />
      <stop
         id="stop4473"
         offset="1"
         style="stop-color:#650000;stop-opacity:0;" />
    </linearGradient>
    <linearGradient
       inkscape:collect="always"
       xlink:href="#linearGradient4469"
       id="linearGradient18869"
       gradientUnits="userSpaceOnUse"
       x1="463.54642"
       y1="480.83444"
       x2="463.54642"
       y2="413.53998" />
    <linearGradient
       id="linearGradient2827">
      <stop
         style="stop-color:white;stop-opacity:1;"
         offset="0"
         id="stop2829" />
      <stop
         style="stop-color:black;stop-opacity:0;"
         offset="1"
         id="stop2831" />
    </linearGradient>
    <radialGradient
       inkscape:collect="always"
       xlink:href="#linearGradient2827"
       id="radialGradient18871"
       gradientUnits="userSpaceOnUse"
       gradientTransform="matrix(2.928411,1.1129447e-6,-5.6022465e-7,1.4740787,-899.02713,-219.50059)"
       cx="465.29459"
       cy="508.45303"
       fx="465.29459"
       fy="508.45303"
       r="79.005089" />
    <linearGradient
       id="linearGradient3233">
      <stop
         style="stop-color:#ffffff;stop-opacity:0.95151514;"
         offset="0"
         id="stop3235" />
      <stop
         style="stop-color:#ffffff;stop-opacity:0.75757575;"
         offset="1"
         id="stop3237" />
    </linearGradient>
    <radialGradient
       inkscape:collect="always"
       xlink:href="#linearGradient3233"
       id="radialGradient18862"
       gradientUnits="userSpaceOnUse"
       gradientTransform="matrix(1.6977433,-2.4334288e-7,1.5983099e-7,1.1151013,-1273.8119,-23.171109)"
       cx="891.9137"
       cy="466.54245"
       fx="891.9137"
       fy="466.54245"
       r="66.533768" />
    <linearGradient
       id="linearGradient2764">
      <stop
         style="stop-color:#7d0000;stop-opacity:1;"
         offset="0"
         id="stop2766" />
      <stop
         id="stop6460"
         offset="0.5"
         style="stop-color:#ffffff;stop-opacity:0.60000002;" />
      <stop
         style="stop-color:#650000;stop-opacity:0.20392157;"
         offset="1"
         id="stop2768" />
    </linearGradient>
    <radialGradient
       inkscape:collect="always"
       xlink:href="#linearGradient2764"
       id="radialGradient14943"
       gradientUnits="userSpaceOnUse"
       gradientTransform="matrix(1.634067,0,0,1.1373812,-293.91948,-49.990622)"
       cx="463.54642"
       cy="363.8826"
       fx="463.54642"
       fy="363.8826"
       r="86.104095" />
    <linearGradient
       id="linearGradient5455">
      <stop
         id="stop5457"
         offset="0"
         style="stop-color:#000000;stop-opacity:0.18181819;" />
      <stop
         id="stop5459"
         offset="1"
         style="stop-color:#000000;stop-opacity:0.16363636;" />
    </linearGradient>
    <radialGradient
       inkscape:collect="always"
       xlink:href="#linearGradient5455"
       id="radialGradient14941"
       gradientUnits="userSpaceOnUse"
       gradientTransform="matrix(2.928411,0,0,2.235288,-899.0274,-606.5392)"
       cx="465.29462"
       cy="503.70474"
       fx="465.29462"
       fy="503.70474"
       r="79.005089" />
    <linearGradient
       id="linearGradient3550">
      <stop
         style="stop-color:#fbffff;stop-opacity:0.95757574;"
         offset="0"
         id="stop3552" />
      <stop
         style="stop-color:#ffffff;stop-opacity:0.72121215;"
         offset="1"
         id="stop3554" />
    </linearGradient>
    <linearGradient
       inkscape:collect="always"
       xlink:href="#linearGradient3550"
       id="linearGradient18867"
       gradientUnits="userSpaceOnUse"
       gradientTransform="matrix(0.9840884,0,0,0.9840884,88.235437,118.85838)"
       x1="565.65393"
       y1="52.028114"
       x2="645.57361"
       y2="564.80005" />
    <radialGradient
       inkscape:collect="always"
       xlink:href="#linearGradient3233"
       id="radialGradient2288"
       gradientUnits="userSpaceOnUse"
       gradientTransform="matrix(1.6977433,-2.4334288e-7,1.5983099e-7,1.1151013,-1414.3833,-418.80488)"
       cx="891.9137"
       cy="466.54245"
       fx="891.9137"
       fy="466.54245"
       r="66.533768" />
    <linearGradient
       inkscape:collect="always"
       xlink:href="#linearGradient3550"
       id="linearGradient2293"
       gradientUnits="userSpaceOnUse"
       gradientTransform="matrix(1.1639887,0,0,1.1639887,-288.46457,-366.71524)"
       x1="565.65393"
       y1="52.028114"
       x2="645.57361"
       y2="564.80005" />
  </defs>
  <sodipodi:namedview
     id="base"
     pagecolor="#ffffff"
     bordercolor="#666666"
     borderopacity="1.0"
     inkscape:pageopacity="0.0"
     inkscape:pageshadow="2"
     inkscape:zoom="1.8589105"
     inkscape:cx="364.42315"
     inkscape:cy="96.242315"
     inkscape:document-units="px"
     inkscape:current-layer="layer1"
     width="625px"
     height="180px"
     inkscape:window-width="1674"
     inkscape:window-height="953"
     inkscape:window-x="0"
     inkscape:window-y="24"
     showgrid="false" />
  <metadata
     id="metadata2250">
    <rdf:RDF>
      <cc:Work
         rdf:about="">
        <dc:format>image/svg+xml</dc:format>
        <dc:type
           rdf:resource="http://purl.org/dc/dcmitype/StillImage" />
      </cc:Work>
    </rdf:RDF>
  </metadata>
  <g
     inkscape:label="Livello 1"
     inkscape:groupmode="layer"
     id="layer1">
    <path
       transform="scale(1.0071791,0.9928721)"
       style="font-size:187.5030365px;font-style:normal;font-variant:normal;font-weight:normal;font-stretch:normal;text-align:start;line-height:125%;writing-mode:lr-tb;text-anchor:start;fill:#6c0104;fill-opacity:1;stroke:url(#linearGradient2293);stroke-width:5.80317068;stroke-linecap:round;stroke-linejoin:round;stroke-miterlimit:4;stroke-opacity:1;font-family:Entangled Plain BRK"
       d="M 47.010961,94.447312 C 57.136069,94.447353 65.948703,96.259881 73.448889,99.8849 C 82.073948,104.26 86.386514,110.6976 86.386598,119.19771 C 86.386514,127.44785 82.136449,133.76045 73.636392,138.13552 C 66.136206,141.76057 57.261071,143.5731 47.010961,143.57311 L 17.385481,143.57311 C 14.635424,143.5731 12.260388,142.57308 10.260366,140.57306 C 8.3853287,138.69803 7.4478145,136.44799 7.4478201,133.82295 C 7.4478145,131.07291 8.3853287,128.76037 10.260366,126.88534 C 12.135386,125.01032 14.510422,124.0728 17.385481,124.07279 L 46.823458,124.07279 C 49.073447,124.0728 51.26098,123.9478 53.386064,123.69779 C 55.636047,123.44779 57.636077,123.07279 59.386161,122.57277 C 61.261132,122.07277 62.823656,121.57277 64.073737,121.07274 C 65.448696,120.44775 66.323709,119.82274 66.69878,119.19771 L 66.69878,119.01021 C 66.073705,117.88521 63.698669,116.82269 59.573664,115.82266 C 55.448544,114.69766 51.26098,114.13515 47.010961,114.13513 C 36.76076,114.13515 27.885625,112.32262 20.38553,108.69754 C 11.76038,104.44751 7.4478145,98.072408 7.4478201,89.572233 C 7.4478145,81.197152 11.697879,74.822055 20.198027,70.446923 C 27.448118,66.696932 36.385754,64.821903 47.010961,64.821832 L 76.448938,64.821832 C 79.323907,64.821903 81.698943,65.759417 83.574053,67.634378 C 85.449,69.509474 86.386514,71.88451 86.386598,74.759493 C 86.386514,77.509596 85.449,79.822131 83.574053,81.697105 C 81.698943,83.572188 79.323907,84.509702 76.448938,84.509651 L 47.010961,84.509651 C 44.760881,84.509702 42.510847,84.697205 40.260851,85.07216 C 38.135781,85.322215 36.13575,85.69722 34.260754,86.197178 C 32.510695,86.572234 30.948172,87.072241 29.573178,87.697202 C 28.323132,88.32226 27.510619,88.884769 27.135639,89.38473 C 27.760623,90.509793 30.073158,91.63481 34.073251,92.759784 C 38.198282,93.884845 42.510847,94.447353 47.010961,94.447312 M 173.54621,104.38497 L 173.54621,133.82295 C 173.54613,136.57299 172.60861,138.88553 170.73367,140.76056 C 168.85856,142.63559 166.48352,143.5731 163.60855,143.57311 C 159.73342,143.5731 156.85837,141.82307 154.98341,138.32302 C 152.1083,139.94804 148.92075,141.19806 145.42076,142.07308 C 142.04565,143.07309 138.29559,143.5731 134.17058,143.57311 C 121.04533,143.5731 110.85768,139.07303 103.60758,130.07289 C 97.607475,122.57278 94.607429,114.01015 94.607435,104.38497 C 94.607429,94.634856 97.544974,86.072226 103.42008,78.697057 C 110.79517,69.446973 121.04533,64.821903 134.17058,64.821832 C 147.29573,64.821903 157.48338,69.384472 164.73357,78.509554 C 170.60858,85.884723 173.54613,94.509854 173.54621,104.38497 M 153.85839,104.38497 C 153.85833,99.759934 152.85831,95.884875 150.85835,92.759784 C 147.48323,87.259744 141.92065,84.509702 134.17058,84.509651 C 128.04544,84.509702 123.17036,86.32223 119.54534,89.947239 C 116.04525,93.447338 114.29523,98.19741 114.29525,104.19747 C 114.29523,108.82257 115.29524,112.69763 117.2953,115.82266 C 120.67033,121.32276 126.29541,124.0728 134.17058,124.07279 C 141.79565,124.0728 147.29573,121.38526 150.67084,116.01016 C 152.79581,112.38513 153.85833,108.51007 153.85839,104.38497 M 263.63556,104.38497 C 263.63548,113.63514 260.69793,122.13527 254.82292,129.88539 C 247.57273,139.01053 237.38508,143.5731 224.25992,143.57311 C 219.88481,143.5731 216.07225,143.13559 212.82224,142.26059 C 209.69716,141.51057 206.50961,140.19805 203.25958,138.32302 C 201.38453,141.82307 198.50949,143.5731 194.63444,143.57311 C 191.88439,143.5731 189.50935,142.57308 187.50933,140.57306 C 185.63429,138.69803 184.69678,136.44799 184.69678,133.82295 L 184.69678,15.508533 C 184.69678,12.758612 185.63429,10.446077 187.50933,8.570921 C 189.50935,6.5710179 191.88439,5.5710027 194.63444,5.5708724 C 197.38447,5.5710027 199.697,6.508517 201.57206,8.383418 C 203.44706,10.258574 204.38458,12.63361 204.3846,15.508533 L 204.3846,69.509408 C 209.75966,66.384427 216.38476,64.821903 224.25992,64.821832 C 237.38508,64.821903 247.57273,69.384472 254.82292,78.509554 C 260.69793,85.884723 263.63548,94.509854 263.63556,104.38497 M 243.94774,104.38497 C 243.94768,99.759934 242.94766,95.884875 240.94769,92.759784 C 237.57258,87.259744 232.01,84.509702 224.25992,84.509651 C 218.25979,84.509702 213.44721,86.32223 209.82219,89.947239 C 206.1971,93.447338 204.38458,98.19741 204.3846,104.19747 C 204.38458,108.32256 205.44709,112.19762 207.57215,115.82266 C 210.94718,121.32276 216.50976,124.0728 224.25992,124.07279 C 230.25997,124.0728 235.01004,122.32278 238.51015,118.82271 C 242.13515,115.19767 243.94768,110.3851 243.94774,104.38497 M 353.72492,104.38497 L 353.72492,133.82295 C 353.72483,136.57299 352.78732,138.88553 350.91237,140.76056 C 349.03726,142.63559 346.66222,143.5731 343.78726,143.57311 C 339.91212,143.5731 337.03708,141.82307 335.16212,138.32302 C 332.28701,139.94804 329.09946,141.19806 325.59946,142.07308 C 322.22435,143.07309 318.4743,143.5731 314.34928,143.57311 C 301.22403,143.5731 291.03638,139.07303 283.78628,130.07289 C 277.78618,122.57278 274.78613,114.01015 274.78614,104.38497 C 274.78613,94.634856 277.72368,86.072226 283.59878,78.697057 C 290.97388,69.446973 301.22403,64.821903 314.34928,64.821832 C 327.47443,64.821903 337.66209,69.384472 344.91227,78.509554 C 350.78729,85.884723 353.72483,94.509854 353.72492,104.38497 M 334.0371,104.38497 C 334.03703,99.759934 333.03702,95.884875 331.03705,92.759784 C 327.66194,87.259744 322.09935,84.509702 314.34928,84.509651 C 308.22414,84.509702 303.34907,86.32223 299.72404,89.947239 C 296.22396,93.447338 294.47393,98.19741 294.47396,104.19747 C 294.47393,108.82257 295.47395,112.69763 297.47401,115.82266 C 300.84903,121.32276 306.47411,124.0728 314.34928,124.07279 C 321.97435,124.0728 327.47443,121.38526 330.84955,116.01016 C 332.97452,112.38513 334.03703,108.51007 334.0371,104.38497 M 443.81427,74.759493 L 443.81427,133.82295 C 443.81419,143.07309 440.87664,151.57322 435.00163,159.32336 C 427.62644,168.57348 417.43879,173.19855 404.43863,173.19859 C 401.68855,173.19855 399.31351,172.19853 397.31352,170.19854 C 395.43845,168.32348 394.50094,166.01094 394.50097,163.26093 C 394.50094,160.51086 395.43845,158.19832 397.31352,156.32331 C 399.18851,154.44826 401.56355,153.51075 404.43863,153.51077 C 410.43868,153.51075 415.00125,151.94823 418.12636,148.82319 C 420.62633,146.32314 422.37636,143.13559 423.37644,139.26054 C 417.25128,142.13558 410.93869,143.5731 404.43863,143.57311 C 391.31339,143.5731 381.12573,139.07303 373.87564,130.07289 C 367.87553,122.57278 364.87549,114.01015 364.87549,104.38497 L 364.87549,74.759493 C 364.87549,72.009512 365.813,69.696977 367.68804,67.821881 C 369.68806,65.821918 372.0631,64.821903 374.81315,64.821832 C 377.56318,64.821903 379.87572,65.759417 381.75077,67.634378 C 383.62577,69.509474 384.56329,71.88451 384.56331,74.759493 L 384.56331,104.19747 C 384.56329,108.82257 385.5633,112.69763 387.56336,115.82266 C 390.93838,121.32276 396.56347,124.0728 404.43863,124.07279 C 410.43868,124.0728 415.18875,122.32278 418.68886,118.82271 C 422.31386,115.19767 424.12639,110.32259 424.12645,104.19747 L 424.12645,74.759493 C 424.12639,72.134514 425.0639,69.821979 426.939,67.821881 C 428.81396,65.821918 431.12649,64.821903 433.87661,64.821832 C 436.75158,64.821903 439.12662,65.759417 441.00173,67.634378 C 442.87667,69.509474 443.81419,71.88451 443.81427,74.759493 M 533.9036,104.38497 C 533.90351,117.5102 529.34094,127.69786 520.21588,134.94797 C 512.96569,140.69806 504.40306,143.5731 494.52796,143.57311 C 485.02777,143.5731 476.46514,140.69806 468.84004,134.94797 C 459.58988,127.57286 454.96481,117.3852 454.96482,104.38497 C 454.96481,91.259805 459.52738,81.07215 468.65254,73.821978 C 476.27764,67.821949 484.90277,64.821903 494.52796,64.821832 C 504.15306,64.821903 512.65319,67.759448 520.02837,73.634475 C 529.27844,81.009649 533.90351,91.259805 533.9036,104.38497 M 514.21578,104.38497 C 514.21571,98.259911 512.52819,93.509839 509.1532,90.134742 C 505.40308,86.384731 500.52801,84.509702 494.52796,84.509651 C 489.90284,84.509702 486.02778,85.509717 482.90277,87.509699 C 477.40265,90.884799 474.65261,96.509884 474.65264,104.38497 C 474.65261,112.26012 477.34015,117.76021 482.71527,120.88524 C 486.34029,123.01029 490.27785,124.0728 494.52796,124.07279 C 499.02798,124.0728 502.84054,123.07279 505.96564,121.07274 C 511.46567,117.69771 514.21571,112.13512 514.21578,104.38497 M 623.99292,104.38497 L 623.99292,133.82295 C 623.99284,136.57299 623.05532,138.88553 621.18038,140.76056 C 619.30527,142.63559 616.93023,143.5731 614.05526,143.57311 C 611.30514,143.5731 608.99261,142.63559 607.11765,140.76056 C 605.24255,138.88553 604.30504,136.57299 604.3051,133.82295 L 604.3051,104.38497 C 604.30504,99.759934 603.30502,95.884875 601.30505,92.759784 C 597.92994,87.259744 592.36736,84.509702 584.61728,84.509651 C 578.61715,84.509702 573.80457,86.32223 570.17955,89.947239 C 566.55446,93.447338 564.74194,98.259911 564.74196,104.38497 L 564.74196,133.82295 C 564.74194,136.57299 563.80442,138.88553 561.92942,140.76056 C 560.05437,142.63559 557.74183,143.5731 554.9918,143.57311 C 552.24175,143.5731 549.86671,142.57308 547.86669,140.57306 C 545.99165,138.69803 545.05414,136.44799 545.05414,133.82295 L 545.05414,74.759493 C 545.05414,72.009512 545.99165,69.696977 547.86669,67.821881 C 549.86671,65.821918 552.24175,64.821903 554.9918,64.821832 C 558.86685,64.821903 561.74189,66.57193 563.61694,70.071917 C 566.36696,68.57196 569.55451,67.321941 573.1796,66.321856 C 576.80462,65.321911 580.61718,64.821903 584.61728,64.821832 C 597.74244,64.821903 607.93009,69.384472 615.18028,78.509554 C 621.05529,85.884723 623.99284,94.509854 623.99292,104.38497"
       id="text14927" />
  </g>
</svg>
