<?xml version="1.0" encoding="UTF-8" standalone="no"?>
<!-- Created with Inkscape (http://www.inkscape.org/) -->

<svg
   xmlns:dc="http://purl.org/dc/elements/1.1/"
   xmlns:cc="http://creativecommons.org/ns#"
   xmlns:rdf="http://www.w3.org/1999/02/22-rdf-syntax-ns#"
   xmlns:svg="http://www.w3.org/2000/svg"
   xmlns="http://www.w3.org/2000/svg"
   xmlns:xlink="http://www.w3.org/1999/xlink"
   xmlns:sodipodi="http://sodipodi.sourceforge.net/DTD/sodipodi-0.dtd"
   xmlns:inkscape="http://www.inkscape.org/namespaces/inkscape"
   version="1.0"
   width="450"
   height="200"
   id="svg2"
   inkscape:version="0.47 r22583"
   sodipodi:docname="sabayonlogo1.svg">
  <metadata
     id="metadata37">
    <rdf:RDF>
      <cc:Work
         rdf:about="">
        <dc:format>image/svg+xml</dc:format>
        <dc:type
           rdf:resource="http://purl.org/dc/dcmitype/StillImage" />
        <dc:title></dc:title>
      </cc:Work>
    </rdf:RDF>
  </metadata>
  <sodipodi:namedview
     pagecolor="#ffffff"
     bordercolor="#666666"
     borderopacity="1"
     objecttolerance="10"
     gridtolerance="10"
     guidetolerance="10"
     inkscape:pageopacity="0"
     inkscape:pageshadow="2"
     inkscape:window-width="1680"
     inkscape:window-height="975"
     id="namedview35"
     showgrid="false"
     inkscape:zoom="0.59"
     inkscape:cx="-102.11864"
     inkscape:cy="264.40678"
     inkscape:window-x="-4"
     inkscape:window-y="-3"
     inkscape:window-maximized="1"
     inkscape:current-layer="svg2" />
  <defs
     id="defs4">
    <inkscape:perspective
       sodipodi:type="inkscape:persp3d"
       inkscape:vp_x="0 : 200 : 1"
       inkscape:vp_y="0 : 1000 : 0"
       inkscape:vp_z="450 : 200 : 1"
       inkscape:persp3d-origin="225 : 133.33333 : 1"
       id="perspective39" />
    <linearGradient
       id="linearGradient3375">
      <stop
         id="stop3377"
         style="stop-color: rgb(255, 255, 255); stop-opacity: 0;"
         offset="0" />
      <stop
         id="stop3379"
         style="stop-color: rgb(255, 255, 255); stop-opacity: 0.0980392;"
         offset="0.11315836" />
      <stop
         id="stop3381"
         style="stop-color: rgb(255, 255, 255); stop-opacity: 0;"
         offset="1" />
    </linearGradient>
    <linearGradient
       id="linearGradient3363">
      <stop
         id="stop3365"
         style="stop-color: rgb(0, 0, 0); stop-opacity: 1;"
         offset="0" />
      <stop
         id="stop3367"
         style="stop-color: rgb(0, 0, 0); stop-opacity: 0;"
         offset="1" />
    </linearGradient>
    <linearGradient
       id="linearGradient3287">
      <stop
         id="stop3289"
         style="stop-color: rgb(255, 255, 255); stop-opacity: 0;"
         offset="0" />
      <stop
         id="stop3371"
         style="stop-color: rgb(255, 255, 255); stop-opacity: 0.0980392;"
         offset="0.5" />
      <stop
         id="stop3291"
         style="stop-color: rgb(255, 255, 255); stop-opacity: 0;"
         offset="1" />
    </linearGradient>
    <linearGradient
       id="linearGradient3279">
      <stop
         id="stop3281"
         style="stop-color: rgb(0, 176, 255); stop-opacity: 0.0816327;"
         offset="0" />
      <stop
         id="stop3283"
         style="stop-color: rgb(0, 176, 255); stop-opacity: 0;"
         offset="1" />
    </linearGradient>
    <linearGradient
       x1="409.78943"
       y1="-268.54987"
       x2="409.78943"
       y2="-340.90506"
       id="linearGradient3285"
       xlink:href="#linearGradient3279"
       gradientUnits="userSpaceOnUse" />
    <linearGradient
       x1="234.79814"
       y1="-196.93053"
       x2="235.53168"
       y2="-283.73892"
       id="linearGradient3293"
       xlink:href="#linearGradient3287"
       gradientUnits="userSpaceOnUse" />
    <filter
       id="filter3325"
       color-interpolation-filters="sRGB">
      <feGaussianBlur
         id="feGaussianBlur3327"
         stdDeviation="1.9059608"
         inkscape:collect="always" />
    </filter>
    <linearGradient
       x1="234.79814"
       y1="-196.93053"
       x2="235.53168"
       y2="-283.73892"
       id="linearGradient3355"
       xlink:href="#linearGradient3287"
       gradientUnits="userSpaceOnUse"
       gradientTransform="translate(6.79032e-6,-50.7143)" />
    <linearGradient
       x1="409.78943"
       y1="-268.54987"
       x2="409.78943"
       y2="-340.90506"
       id="linearGradient3357"
       xlink:href="#linearGradient3279"
       gradientUnits="userSpaceOnUse"
       gradientTransform="translate(6.79032e-6,-50.7143)" />
    <linearGradient
       x1="15.512423"
       y1="-252.47757"
       x2="412.67453"
       y2="-252.47757"
       id="linearGradient3369"
       xlink:href="#linearGradient3363"
       gradientUnits="userSpaceOnUse" />
    <linearGradient
       x1="234.08386"
       y1="-160.50195"
       x2="235.53168"
       y2="-283.73892"
       id="linearGradient3373"
       xlink:href="#linearGradient3375"
       gradientUnits="userSpaceOnUse"
       gradientTransform="translate(6.79032e-6,-50.7143)" />
    <linearGradient
       x1="409.78943"
       y1="-217.83559"
       x2="409.78943"
       y2="-290.19077"
       id="linearGradient3383"
       xlink:href="#linearGradient3279"
       gradientUnits="userSpaceOnUse"
       gradientTransform="translate(6.79032e-6,-50.7143)" />
    <filter
       id="filter3389"
       color-interpolation-filters="sRGB">
      <feGaussianBlur
         id="feGaussianBlur3391"
         stdDeviation="0.60875764"
         inkscape:collect="always" />
    </filter>
  </defs>
  <g
     id="layer1"
     transform="translate(0,-200)">
    <g
       transform="translate(8.0098373,125.42373)"
       id="g3259">
      <path
         d="m 66.162116,154.0248 c -4.6e-5,9.69777 -7.371118,14.54664 -22.113238,14.54664 l -5.748269,0 c -7.077812,0 -12.259069,-2.0725 -15.543788,-6.21751 l 4.399185,-2.63951 c 2.698157,2.77638 6.413021,4.16456 11.144603,4.16456 l 9.326273,0 c 9.072061,0 13.608105,-3.16741 13.608147,-9.50224 -4.2e-5,-5.43542 -4.321015,-9.3458 -12.962933,-11.73116 L 37.30346,139.59547 c -9.42404,-2.61992 -14.136052,-7.44925 -14.136048,-14.48798 -4e-6,-8.83742 5.963331,-13.25615 17.89002,-13.25621 l 5.513646,0 0,-0.0587 3.226069,0 c 7.155971,6e-5 12.317677,1.99436 15.485132,5.98289 l -4.399185,2.63952 c -2.580894,-2.65902 -6.452173,-3.98855 -11.613849,-3.9886 l -10.030143,0 c -7.429747,5e-5 -11.144611,2.97194 -11.144603,8.91568 -8e-6,4.49699 3.832167,7.82081 11.496538,9.97149 l 11.437882,3.22607 c 10.088757,2.85461 15.133151,8.01632 15.133197,15.48513 m 62.545644,14.54664 -4.92708,0 0,-10.55804 c -3.08926,4.30143 -7.39068,7.52749 -12.90428,9.6782 -3.32387,1.29043 -6.82366,1.93565 -10.49939,1.93565 -8.641979,0 -15.582909,-2.71772 -20.822811,-8.15316 -5.239924,-5.47453 -7.859881,-12.55232 -7.859878,-21.2334 -3e-6,-8.83744 2.522194,-15.91523 7.566599,-21.2334 5.122591,-5.47449 12.083073,-8.21176 20.88147,-8.21182 10.04965,6e-5 17.92907,4.18417 23.63829,12.55235 l 0,-11.5552 4.92708,0 0,56.77882 m -4.92708,-17.77271 0,-7.68391 c -6e-5,-7.93805 -1.87704,-14.40973 -5.63096,-19.41507 -4.18416,-5.63091 -10.10839,-8.44638 -17.77271,-8.44643 -7.273345,5e-5 -13.04116,2.34628 -17.303463,7.03869 -4.14502,4.53609 -6.217523,10.47987 -6.217515,17.83137 -8e-6,7.46886 2.033391,13.43219 6.100203,17.89002 4.2232,4.65336 10.030119,6.98004 17.420775,6.98004 3.75394,0 7.25373,-0.80163 10.49939,-2.40489 5.63091,-2.77637 9.93233,-6.7063 12.90428,-11.78982 m 67.42324,-10.55804 c -6e-5,8.68108 -2.62002,15.75887 -7.85988,21.2334 -5.20086,5.43544 -12.14179,8.15316 -20.82281,8.15316 -3.67579,0 -7.17558,-0.64522 -10.49939,-1.93565 -5.55276,-2.15071 -9.85418,-5.37677 -12.90428,-9.6782 l 0,10.55804 -4.92708,0 -0.0587,-0.0587 0,-83.701837 4.92709,0 0,38.536867 c 5.74825,-8.36818 13.64723,-12.55229 23.69694,-12.55235 8.79833,6e-5 15.75882,2.73733 20.88147,8.21182 5.04434,5.31817 7.56654,12.39596 7.5666,21.2334 m -5.16171,-0.11731 c -6e-5,-7.31239 -2.07256,-13.25617 -6.21752,-17.83137 -4.26236,-4.69241 -10.03018,-7.03864 -17.30346,-7.03869 -7.74259,5e-5 -13.68637,2.79597 -17.83136,8.38778 -3.71488,4.96623 -5.57231,11.45746 -5.57231,19.47372 l 0,7.68391 c 2.97189,5.08352 7.27331,9.01345 12.90428,11.78982 3.2456,1.60326 6.74539,2.40489 10.49939,2.40489 7.31239,0 13.09975,-2.34623 17.36212,-7.0387 4.10585,-4.49693 6.1588,-10.44071 6.15886,-17.83136 m 67.54055,28.44806 -4.92708,0 0,-10.55804 c -3.08926,4.30143 -7.39068,7.52749 -12.90428,9.6782 -3.32387,1.29043 -6.82366,1.93565 -10.49939,1.93565 -8.64198,0 -15.58291,-2.71772 -20.82281,-8.15316 -5.23993,-5.47453 -7.85988,-12.55232 -7.85988,-21.2334 0,-8.83744 2.5222,-15.91523 7.5666,-21.2334 5.12259,-5.47449 12.08307,-8.21176 20.88147,-8.21182 10.04965,6e-5 17.92907,4.18417 23.63829,12.55235 l 0,-11.5552 4.92708,0 0,56.77882 m -4.92708,-17.77271 0,-7.68391 c -6e-5,-7.93805 -1.87704,-14.40973 -5.63096,-19.41507 -4.18416,-5.63091 -10.10839,-8.44638 -17.77271,-8.44643 -7.27334,5e-5 -13.04116,2.34628 -17.30346,7.03869 -4.14502,4.53609 -6.21753,10.47987 -6.21752,17.83137 -1e-5,7.46886 2.03339,13.43219 6.10021,17.89002 4.2232,4.65336 10.03011,6.98004 17.42077,6.98004 3.75394,0 7.25373,-0.80163 10.49939,-2.40489 5.63091,-2.77637 9.93233,-6.7063 12.90428,-11.78982 m 57.04116,16.01304 c -5e-5,8.79836 -2.40493,15.79795 -7.21466,20.99878 -4.96623,5.3963 -11.8094,8.09447 -20.52953,8.0945 -6.68678,-3e-5 -13.00205,-1.87701 -18.94583,-5.63096 l 1.70102,-4.92709 c 3.28472,2.38532 6.86272,3.98858 10.73401,4.80978 2.58084,0.54743 4.82931,0.82116 6.74542,0.82118 7.23419,-2e-5 12.84559,-2.24849 16.83421,-6.74542 3.83214,-4.30144 5.74823,-10.10835 5.74827,-17.42077 l 0,-5.74827 c -4.26236,5.70917 -10.3039,8.56375 -18.12464,8.56375 -7.50796,0 -13.29533,-2.46355 -17.36212,-7.39064 -3.79308,-4.53603 -5.68961,-10.63623 -5.68961,-18.30061 l 0,-32.08472 4.80977,0 0,33.66843 c 0,5.74829 1.5837,10.42119 4.75113,14.01874 3.32381,3.79308 7.82075,5.68961 13.49083,5.68961 5.59182,0 10.04966,-1.91608 13.37352,-5.74827 3.16737,-3.63665 4.75108,-8.29 4.75112,-13.96008 l 0,-33.66843 4.92709,0 0,54.96049 m 62.5893,-26.57108 c -6e-5,8.56377 -2.63957,15.60245 -7.91854,21.11609 -5.23996,5.51365 -12.12224,8.27047 -20.64684,8.27047 -8.48556,0 -15.38739,-2.75682 -20.7055,-8.27047 -5.31813,-5.55274 -7.97719,-12.59143 -7.97719,-21.11609 0,-8.52461 2.65906,-15.5633 7.97719,-21.11609 5.31811,-5.5527 12.21994,-8.32907 20.7055,-8.32913 8.5246,6e-5 15.44598,2.79599 20.76415,8.38778 5.20076,5.47459 7.80117,12.49373 7.80123,21.05744 m -5.16171,-0.11731 c -6e-5,-7.23418 -2.07256,-13.15841 -6.21752,-17.77271 -4.26237,-4.73152 -9.99108,-7.0973 -17.18615,-7.09735 -7.19514,5e-5 -12.96295,2.36583 -17.30346,7.09735 -4.14502,4.57519 -6.21753,10.49942 -6.21752,17.77271 -1e-5,7.27334 2.0725,13.19757 6.21752,17.77271 4.3014,4.73157 10.06922,7.09735 17.30346,7.09735 7.11687,0 12.82602,-2.38533 17.12749,-7.15601 4.18407,-4.65335 6.27612,-10.55802 6.27618,-17.71405 m 56.79451,28.44806 -4.80978,0 0,-33.60977 c -4e-5,-5.67003 -1.6033,-10.32338 -4.80977,-13.96009 -3.36297,-3.83212 -7.84036,-5.74821 -13.43218,-5.74826 -5.55277,5e-5 -9.9715,1.68151 -13.25621,5.04439 -3.28474,3.32388 -4.9271,7.76216 -4.92709,13.31487 l 0,34.84155 -0.0587,0 0,0.11731 -4.80977,0 0,-0.11731 -0.0587,0 0,-56.72016 4.92709,0 0,7.80122 c 4.2232,-5.82642 10.2843,-8.73966 18.1833,-8.73972 7.4297,6e-5 13.19751,2.48316 17.30346,7.44929 3.83213,4.5752 5.74822,10.65585 5.74827,18.24196 l 0,32.08472"
         id="text2481"
         style="font-size:122px;font-style:normal;font-variant:normal;font-weight:normal;font-stretch:normal;text-align:start;line-height:125%;text-anchor:start;fill:#ffffff;fill-opacity:1;stroke:none;font-family:Cicle" />
    </g>
    <path
       d="m 58.917718,-238.81077 c -4.6e-5,9.69777 -7.371118,14.54664 -22.113238,14.54664 l -5.748269,0 c -7.077812,0 -12.259069,-2.0725 -15.543788,-6.21751 l 4.399185,-2.63952 c 2.698157,2.77638 6.413021,4.16457 11.144603,4.16457 l 9.326273,0 c 9.072061,0 13.608105,-3.16741 13.608147,-9.50224 -4.2e-5,-5.43542 -4.321015,-9.34581 -12.962933,-11.73117 l -10.968636,-3.0501 c -9.42404,-2.61992 -14.136052,-7.44925 -14.136049,-14.48798 -3e-6,-8.83742 5.963331,-13.25616 17.890021,-13.25621 l 5.513645,0 0,-0.0587 3.22607,0 c 7.155971,6e-5 12.317676,1.99435 15.485132,5.98289 l -4.399185,2.63951 c -2.580894,-2.65901 -6.452173,-3.98854 -11.61385,-3.98859 l -10.030142,0 c -7.429747,5e-5 -11.144611,2.97194 -11.144603,8.91568 -8e-6,4.49699 3.832167,7.82081 11.496538,9.97149 l 11.437882,3.22607 c 10.088757,2.85461 15.133151,8.01631 15.133197,15.48513 m 62.545642,14.54664 -4.92708,0 0,-10.55804 c -3.08926,4.30143 -7.39068,7.52749 -12.90428,9.6782 -3.32387,1.29043 -6.82366,1.93564 -10.499389,1.93564 -8.641978,0 -15.582908,-2.71771 -20.82281,-8.15315 -5.239924,-5.47453 -7.859881,-12.55232 -7.859878,-21.2334 -3e-6,-8.83744 2.522194,-15.91523 7.566599,-21.2334 5.122591,-5.47449 12.083073,-8.21176 20.881466,-8.21182 10.049652,6e-5 17.929072,4.18417 23.638292,12.55235 l 0,-11.5552 4.92708,0 0,56.77882 m -4.92708,-17.77271 0,-7.68391 c -6e-5,-7.93805 -1.87704,-14.40973 -5.63096,-19.41507 -4.18416,-5.63091 -10.10839,-8.44638 -17.772709,-8.44644 -7.273344,6e-5 -13.041159,2.34629 -17.303462,7.0387 -4.14502,4.53609 -6.217523,10.47987 -6.217515,17.83137 -8e-6,7.46886 2.033391,13.43219 6.100203,17.89002 4.2232,4.65336 10.030119,6.98004 17.420774,6.98004 3.753936,0 7.253729,-0.80163 10.499389,-2.40489 5.63091,-2.77637 9.93233,-6.7063 12.90428,-11.78982 m 67.42324,-10.55804 c -6e-5,8.68108 -2.62002,15.75887 -7.85988,21.2334 -5.20086,5.43544 -12.14179,8.15315 -20.82281,8.15315 -3.67579,0 -7.17558,-0.64521 -10.49939,-1.93564 -5.55276,-2.15071 -9.85418,-5.37677 -12.90427,-9.6782 l 0,10.55804 -4.92709,0 -0.0587,-0.0587 0,-83.70183 4.92709,0 0,38.53687 c 5.74826,-8.36818 13.64723,-12.55229 23.69695,-12.55235 8.79833,6e-5 15.75881,2.73733 20.88146,8.21182 5.04434,5.31817 7.56654,12.39596 7.5666,21.2334 m -5.16171,-0.11731 c -5e-5,-7.31239 -2.07256,-13.25617 -6.21752,-17.83137 -4.26236,-4.69241 -10.03018,-7.03864 -17.30346,-7.0387 -7.74259,6e-5 -13.68637,2.79598 -17.83136,8.38778 -3.71488,4.96624 -5.57231,11.45747 -5.5723,19.47373 l 0,7.68391 c 2.97188,5.08352 7.2733,9.01345 12.90427,11.78982 3.2456,1.60326 6.74539,2.40489 10.49939,2.40489 7.31239,0 13.09975,-2.34623 17.36212,-7.0387 4.10585,-4.49693 6.15881,-10.44071 6.15886,-17.83136 m 67.54055,28.44806 -4.92708,0 0,-10.55804 c -3.08926,4.30143 -7.39068,7.52749 -12.90428,9.6782 -3.32387,1.29043 -6.82366,1.93564 -10.49939,1.93564 -8.64198,0 -15.58291,-2.71771 -20.82281,-8.15315 -5.23992,-5.47453 -7.85988,-12.55232 -7.85988,-21.2334 0,-8.83744 2.5222,-15.91523 7.5666,-21.2334 5.12259,-5.47449 12.08307,-8.21176 20.88147,-8.21182 10.04965,6e-5 17.92907,4.18417 23.63829,12.55235 l 0,-11.5552 4.92708,0 0,56.77882 m -4.92708,-17.77271 0,-7.68391 c -6e-5,-7.93805 -1.87704,-14.40973 -5.63096,-19.41507 -4.18416,-5.63091 -10.10839,-8.44638 -17.77271,-8.44644 -7.27334,6e-5 -13.04116,2.34629 -17.30346,7.0387 -4.14502,4.53609 -6.21752,10.47987 -6.21752,17.83137 0,7.46886 2.03339,13.43219 6.10021,17.89002 4.2232,4.65336 10.03012,6.98004 17.42077,6.98004 3.75394,0 7.25373,-0.80163 10.49939,-2.40489 5.63091,-2.77637 9.93233,-6.7063 12.90428,-11.78982 m 57.04116,16.01304 c -5e-5,8.79836 -2.40493,15.79795 -7.21466,20.99877 -4.96623,5.39631 -11.8094,8.09448 -20.52953,8.09451 -6.68678,-3e-5 -13.00205,-1.87702 -18.94583,-5.63096 l 1.70102,-4.92709 c 3.28472,2.38532 6.86272,3.98857 10.73401,4.80978 2.58084,0.54743 4.82931,0.82116 6.74542,0.82118 7.23419,-2e-5 12.84559,-2.24849 16.83422,-6.74542 3.83213,-4.30144 5.74822,-10.10836 5.74827,-17.42077 l 0,-5.74827 c -4.26237,5.70916 -10.30391,8.56374 -18.12465,8.56374 -7.50796,0 -13.29533,-2.46354 -17.36212,-7.39063 -3.79308,-4.53603 -5.68961,-10.63623 -5.68961,-18.30061 l 0,-32.08472 4.80978,0 0,33.66843 c -1e-5,5.74829 1.58369,10.42119 4.75112,14.01874 3.32381,3.79308 7.82075,5.68961 13.49083,5.68961 5.59182,0 10.04966,-1.91608 13.37353,-5.74827 3.16737,-3.63665 4.75107,-8.29 4.75112,-13.96008 l 0,-33.66843 4.92708,0 0,54.96049 m 62.5893,-26.57108 c -6e-5,8.56376 -2.63957,15.60245 -7.91854,21.11609 -5.23996,5.51364 -12.12224,8.27046 -20.64684,8.27046 -8.48556,0 -15.38739,-2.75682 -20.7055,-8.27046 -5.31813,-5.55274 -7.97719,-12.59143 -7.97719,-21.11609 0,-8.52461 2.65906,-15.5633 7.97719,-21.11609 5.31811,-5.5527 12.21994,-8.32907 20.7055,-8.32913 8.5246,6e-5 15.44598,2.79598 20.76416,8.38778 5.20075,5.47459 7.80116,12.49373 7.80122,21.05744 m -5.16171,-0.11731 c -6e-5,-7.23419 -2.07256,-13.15842 -6.21752,-17.77271 -4.26236,-4.73152 -9.99108,-7.0973 -17.18615,-7.09736 -7.19514,6e-5 -12.96295,2.36584 -17.30346,7.09736 -4.14502,4.57519 -6.21752,10.49942 -6.21752,17.77271 0,7.27334 2.0725,13.19757 6.21752,17.7727 4.30141,4.73158 10.06922,7.09736 17.30346,7.09736 7.11687,0 12.82603,-2.38533 17.1275,-7.15601 4.18406,-4.65335 6.27611,-10.55803 6.27617,-17.71405 m 56.79451,28.44806 -4.80978,0 0,-33.60978 c -4e-5,-5.67002 -1.6033,-10.32337 -4.80977,-13.96008 -3.36297,-3.83212 -7.84036,-5.74821 -13.43218,-5.74827 -5.55277,6e-5 -9.9715,1.68152 -13.25621,5.0444 -3.28474,3.32388 -4.9271,7.76216 -4.92709,13.31487 l 0,34.84155 -0.0587,0 0,0.11731 -4.80977,0 0,-0.11731 -0.0587,0 0,-56.72016 4.92709,0 0,7.80122 c 4.22321,-5.82642 10.2843,-8.73966 18.1833,-8.73972 7.4297,6e-5 13.19752,2.48315 17.30346,7.44929 3.83213,4.5752 5.74822,10.65584 5.74827,18.24196 l 0,32.08472"
       transform="matrix(1,0,0,-1,15.25423,74.709425)"
       id="text3267"
       style="font-size:122px;font-style:normal;font-variant:normal;font-weight:normal;font-stretch:normal;text-align:start;line-height:125%;text-anchor:start;fill:url(#linearGradient3373);fill-opacity:1;stroke:none;filter:url(#filter3325);font-family:Cicle" />
  </g>
</svg>
